<svg width="753" height="920" viewBox="0 0 753 920" fill="none" xmlns="http://www.w3.org/2000/svg">
<path opacity="0.2" d="M912.187 452.288L912.553 451.923L910.725 450.826L686.198 226.299L474.103 14.2044L471.544 10.1819L470.812 10.9133L460.207 0.308594L0.914062 459.968L460.573 919.627L920.232 459.968L912.187 452.288ZM383.049 232.515L345.75 348.801L228.001 386.466L286.144 292.487L383.049 232.515ZM295.286 277.859L448.14 30.2943L387.072 221.179L295.286 277.859ZM456.916 457.042H319.421L351.235 355.383L456.916 320.644V457.042ZM311.376 457.042H185.217L221.784 397.071L342.824 358.675L311.376 457.042ZM176.44 457.042H37.1163L210.814 401.459L176.44 457.042ZM176.806 464.356L211.18 519.939L37.482 464.356H176.806ZM185.582 464.356H311.742L343.19 561.627L222.15 523.23L185.582 464.356ZM319.787 464.356H456.916V597.463L351.601 564.552L319.787 464.356ZM456.916 605.508V732.033L392.922 692.174L354.16 572.597L456.916 605.508ZM464.23 605.508L567.352 572.963L528.59 692.906L464.23 732.399V605.508ZM464.23 597.463V464.356H603.188L570.277 564.918L464.23 597.463ZM611.599 464.356H737.758L700.825 523.596L580.15 562.358L611.599 464.356ZM746.535 464.356H889.15L711.429 520.671L746.535 464.356ZM746.535 457.042L711.795 400.728L889.515 457.042H746.535ZM737.758 457.042H611.599L580.15 357.943L700.825 396.705L737.758 457.042ZM603.554 457.042H464.23V320.644L570.643 355.018L603.554 457.042ZM464.23 312.599V185.708L529.321 225.567L567.352 345.51L464.23 312.599ZM456.916 312.599L354.16 345.876L392.191 226.299L456.916 186.074V312.599ZM217.031 389.757L34.1909 448.266L271.517 301.263L217.031 389.757ZM217.396 528.35L272.248 616.844L34.5566 469.475L217.396 528.35ZM228.367 532.007L346.115 569.672L383.415 685.958L286.51 625.986L228.367 532.007ZM387.072 697.294L448.14 887.081L295.652 640.613L387.072 697.294ZM395.848 703.51L456.916 741.175V893.298L395.848 703.51ZM464.23 741.541L524.567 704.242L464.23 892.932V741.541ZM535.903 698.025L626.592 642.442L475.2 887.447L535.903 698.025ZM539.56 686.689L576.859 570.037L694.242 532.738L635.368 627.815L539.56 686.689ZM705.578 529.081L892.806 469.475L650.361 618.673L705.578 529.081ZM705.578 389.026L650.361 299.434L892.441 448.266L705.578 389.026ZM694.608 385.369L577.225 348.07L539.926 231.418L636.099 290.658L694.608 385.369ZM536.269 220.448L475.2 30.66L626.957 276.397L536.269 220.448ZM525.298 214.231L464.23 176.566V24.0778L525.298 214.231ZM395.482 214.962L456.916 23.3464V176.566L395.482 214.962ZM280.659 286.636L27.6087 443.512L433.147 39.802L280.659 286.636ZM281.025 631.471L437.17 884.522L26.8773 474.229L281.025 631.471ZM641.219 633.3L885.493 483.006L485.805 884.522L641.219 633.3ZM885.127 434.736L641.585 285.173L490.193 39.802L885.127 434.736Z" fill="url(#paint0_linear)"/>
<defs>
<linearGradient id="paint0_linear" x1="0.941854" y1="460.02" x2="920.205" y2="460.02" gradientUnits="userSpaceOnUse">
<stop stop-color="#CC33F4"/>
<stop offset="0.0610633" stop-color="#C339F2"/>
<stop offset="0.1627" stop-color="#A948EE"/>
<stop offset="0.2923" stop-color="#8061E7"/>
<stop offset="0.4432" stop-color="#4783DE"/>
<stop offset="0.5409" stop-color="#1E9CD7"/>
<stop offset="0.9944" stop-color="#00CB97"/>
</linearGradient>
</defs>
</svg>
