<svg width="604" height="205" viewBox="0 0 604 205" fill="none" xmlns="http://www.w3.org/2000/svg">
<g clip-path="url(#clip0)">
<path d="M202.97 100.86L152.637 50.43L105.168 3.28L104.759 2.46L102.304 0L0 102.5L102.304 205L204.607 102.5L202.97 100.86ZM85.1165 51.66L76.9322 77.49L50.7425 85.69L63.8374 64.78L85.1165 51.66ZM65.4743 61.91L99.439 6.56L85.935 49.2L65.4743 61.91ZM101.485 101.68H70.794L77.7507 79.13L101.076 71.34V101.68H101.485ZM69.1572 101.68H40.9214L49.1057 88.15L76.1138 79.54L69.1572 101.68ZM38.8753 101.68H8.18428L46.6504 89.38L38.8753 101.68ZM39.2846 103.32L47.0596 115.62L8.5935 103.32H39.2846ZM40.9214 103.32H69.1572L76.1138 125.05L49.1057 116.44L40.9214 103.32ZM70.794 103.32H101.485V132.84L78.1599 125.46L70.794 103.32ZM101.485 134.89V163.18L87.1626 154.16L78.5691 127.51L101.485 134.89ZM103.122 134.89L126.038 127.51L117.444 154.16L103.122 162.77V134.89ZM103.122 133.25V103.73H134.222L126.856 125.87L103.122 133.25ZM135.859 103.32H164.095L155.911 116.44L128.902 125.05L135.859 103.32ZM166.141 103.32H198.06L158.366 116.03L166.141 103.32ZM166.141 101.68L158.366 88.97L198.06 101.68H166.141ZM164.095 101.68H135.859L128.902 79.54L155.911 88.15L164.095 101.68ZM134.222 101.68H103.122V71.34L126.856 79.13L134.222 101.68ZM103.122 69.7V41.41L117.444 50.43L126.038 77.08L103.122 69.7ZM101.485 69.7L78.5691 77.08L87.1626 50.43L101.485 41.41V69.7ZM48.2873 86.92L7.77507 100.04L60.5637 67.24L48.2873 86.92ZM48.2873 117.67L60.5637 137.35L7.77507 104.55L48.2873 117.67ZM50.7425 118.49L76.9322 126.69L85.1165 152.52L63.4282 139.4L50.7425 118.49ZM85.935 155.39L99.439 197.62L65.4743 142.68L85.935 155.39ZM87.981 156.62L101.485 164.82V198.85L87.981 156.62ZM103.122 165.23L116.626 157.03L103.122 199.26V165.23ZM119.081 155.39L139.133 143.09L105.577 197.62L119.081 155.39ZM119.9 152.93L128.084 127.1L154.274 118.9L141.179 140.22L119.9 152.93ZM156.729 118.08L198.469 104.96L144.453 138.17L156.729 118.08ZM156.729 86.51L144.453 66.42L198.469 99.63L156.729 86.51ZM154.274 85.69L128.084 77.49L119.9 51.66L141.179 64.78L154.274 85.69ZM119.081 49.2L105.577 6.97L139.133 61.5L119.081 49.2ZM116.626 47.56L103.122 39.36V5.33L116.626 47.56ZM87.981 47.97L101.485 5.33V39.36L87.981 47.97ZM62.2005 63.96L6.13821 98.81L96.5745 8.61L62.2005 63.96ZM62.2005 140.63L96.9837 197.21L5.729 105.78L62.2005 140.63ZM142.406 141.04L196.832 107.42L108.033 197.21L142.406 141.04ZM196.832 96.76L142.816 63.55L108.851 8.61L196.832 96.76Z" fill="url(#paint0_linear)"/>
<path d="M250.441 73.7998H254.534V127.92H250.441V73.7998Z" fill="white"/>
<path d="M299.956 74.6211V78.7211H261.49V74.6211H299.956ZM278.677 83.6411H282.769V128.331H278.677V83.6411Z" fill="white"/>
<path d="M332.283 74.6211H328.189V126.281H332.283V74.6211Z" fill="white"/>
<path d="M371.973 75.8516H367.881V127.512H371.973V75.8516Z" fill="white"/>
<path d="M360.518 124.231H328.189V128.331H360.518V124.231Z" fill="white"/>
<path d="M403.076 74.6211H368.293V78.7211H403.485V74.6211H403.076Z" fill="white"/>
<path d="M397.756 99.2197H376.477V103.319H397.756V99.2197Z" fill="white"/>
<path d="M446.865 113.16H428.041V117.26H446.865V113.16Z" fill="white"/>
<path d="M403.895 124.231H368.293V128.331H403.895V124.231Z" fill="white"/>
<path d="M572.487 75.8516H568.395V127.512H572.487V75.8516Z" fill="white"/>
<path d="M603.587 74.6211H568.395V78.7211H603.587V74.6211Z" fill="white"/>
<path d="M598.271 99.2197H576.992V103.319H598.271V99.2197Z" fill="white"/>
<path d="M603.996 124.231H568.395V128.331H603.996V124.231Z" fill="white"/>
<path d="M454.637 128.331H450.545L432.54 81.1811L414.944 128.331H410.852L431.312 74.6211H434.995L454.637 128.331Z" fill="white"/>
<path d="M507.427 99.2209V121.361C504.45 124.05 500.951 126.093 497.148 127.363C493.345 128.633 489.322 129.102 485.33 128.741C481.835 128.64 478.394 127.849 475.204 126.413C472.015 124.976 469.14 122.923 466.745 120.371C464.35 117.818 462.481 114.817 461.246 111.54C460.011 108.262 459.435 104.772 459.549 101.271C459.435 97.7694 460.011 94.2797 461.246 91.0021C462.481 87.7244 464.35 84.7234 466.745 82.1711C469.14 79.6188 472.015 77.5656 475.204 76.1292C478.394 74.6928 481.835 73.9016 485.33 73.8009C492.681 73.1817 499.993 75.3795 505.791 79.9509L503.745 83.2309C501.148 81.2386 498.186 79.7785 495.026 78.9343C491.866 78.0901 488.571 77.8783 485.33 78.3109C472.235 79.9509 463.642 88.5609 463.642 101.271C463.487 107.195 465.684 112.938 469.749 117.242C473.815 121.546 479.418 124.059 485.33 124.231C491.744 125.029 498.214 123.261 503.335 119.311V98.8109H507.427V99.2209Z" fill="white"/>
<path d="M552.849 108.24H556.532C555.713 123.41 547.12 128.74 536.889 128.74C525.841 128.74 516.838 122.18 516.838 105.78V73.7998H520.93V106.6C520.93 119.31 528.296 124.64 536.889 124.64C545.483 124.64 552.439 119.72 552.849 108.24Z" fill="white"/>
<path d="M556.936 74.6211H552.844V101.681H556.936V74.6211Z" fill="white"/>
</g>
<defs>
<linearGradient id="paint0_linear" x1="0" y1="102.5" x2="204.607" y2="102.5" gradientUnits="userSpaceOnUse">
<stop stop-color="#CC33F4"/>
<stop offset="0.06" stop-color="#C339F2"/>
<stop offset="0.16" stop-color="#A948EE"/>
<stop offset="0.29" stop-color="#8061E7"/>
<stop offset="0.44" stop-color="#4783DE"/>
<stop offset="0.54" stop-color="#1E9CD7"/>
<stop offset="0.99" stop-color="#00CB97"/>
</linearGradient>
<clipPath id="clip0">
<rect width="604" height="205" fill="white"/>
</clipPath>
</defs>
</svg>
