<svg width="83" height="60" viewBox="0 0 83 60" fill="none" xmlns="http://www.w3.org/2000/svg">
<path d="M71.9993 42.6663V6.66634C71.9993 5.93001 71.4023 5.33301 70.666 5.33301H11.9993C11.263 5.33301 10.666 5.93001 10.666 6.66634V42.6663C10.666 43.4027 11.263 43.9997 11.9993 43.9997H70.666C71.4023 43.9997 71.9993 43.4027 71.9993 42.6663ZM69.3327 41.333H13.3327V7.99967H69.3327V41.333Z" fill="#E43BBB"/>
<path d="M81.3333 46.6667H76V6.66667C75.9954 2.98633 73.0137 0.0045573 69.3333 0H13.3333C9.65299 0.0045573 6.67122 2.98633 6.66667 6.66667V46.6667H1.33333C0.597005 46.6667 0 47.2637 0 48V53.3333C0.0045573 57.0137 2.98633 59.9954 6.66667 60H76C79.6803 59.9954 82.6621 57.0137 82.6667 53.3333V48C82.6667 47.2637 82.0697 46.6667 81.3333 46.6667ZM9.33333 6.66667C9.33333 4.45768 11.1243 2.66667 13.3333 2.66667H69.3333C71.5423 2.66667 73.3333 4.45768 73.3333 6.66667V46.6667H9.33333V6.66667ZM47.6256 49.3333L46.959 52H35.7077L35.041 49.3333H47.6256ZM80 53.3333C80 55.5423 78.209 57.3333 76 57.3333H6.66667C4.45768 57.3333 2.66667 55.5423 2.66667 53.3333V49.3333H32.2936L33.373 53.6576C33.5221 54.2507 34.0553 54.6667 34.6667 54.6667H48C48.6113 54.6667 49.1445 54.2507 49.2936 53.6576L50.373 49.3333H80V53.3333Z" fill="#E43BBB"/>
<path d="M13.3333 50.667H5.33333C4.59701 50.667 4 51.264 4 52.0003C4 52.7367 4.59701 53.3337 5.33333 53.3337H13.3333C14.0697 53.3337 14.6667 52.7367 14.6667 52.0003C14.6667 51.264 14.0697 50.667 13.3333 50.667Z" fill="#E43BBB"/>
<path d="M20 50.667H17.3333C16.597 50.667 16 51.264 16 52.0003C16 52.7367 16.597 53.3337 17.3333 53.3337H20C20.7363 53.3337 21.3333 52.7367 21.3333 52.0003C21.3333 51.264 20.7363 50.667 20 50.667Z" fill="#E43BBB"/>
<path d="M23.9993 20.0007H25.9609L28.2858 23.4167C28.5345 23.7819 28.9473 24.0007 29.3887 24.0007H29.4102C29.8587 23.9935 30.2734 23.7617 30.5143 23.3835L32.666 20.0007H58.666C59.4023 20.0007 59.9994 19.4036 59.9994 18.6673V10.6673C59.9994 9.93099 59.4023 9.33398 58.666 9.33398H23.9993C23.263 9.33398 22.666 9.93099 22.666 10.6673V18.6673C22.666 19.4036 23.263 20.0007 23.9993 20.0007ZM25.3327 12.0007H57.3327V17.334H31.9368C31.4805 17.334 31.056 17.5664 30.8112 17.9512L29.3529 20.2435L27.7689 17.918C27.5208 17.5527 27.1074 17.334 26.666 17.334H25.3327V12.0007Z" fill="#E43BBB"/>
<path d="M23.9993 36.0007H25.9609L28.2858 39.4167C28.5345 39.7819 28.9473 40.0007 29.3887 40.0007H29.4102C29.8587 39.9935 30.2734 39.7617 30.5143 39.3835L32.666 36.0007H58.666C59.4023 36.0007 59.9994 35.4036 59.9994 34.6673V26.6673C59.9994 25.931 59.4023 25.334 58.666 25.334H23.9993C23.263 25.334 22.666 25.931 22.666 26.6673V34.6673C22.666 35.4036 23.263 36.0007 23.9993 36.0007ZM25.3327 28.0007H57.3327V33.334H31.9368C31.4805 33.334 31.056 33.5664 30.8112 33.9512L29.3529 36.2435L27.7689 33.918C27.5208 33.5527 27.1074 33.334 26.666 33.334H25.3327V28.0007Z" fill="#E43BBB"/>
</svg>
