<svg width="78" height="98" viewBox="0 0 78 98" fill="none" xmlns="http://www.w3.org/2000/svg">
<path d="M73.9894 0H3.08289C1.38038 0 0 1.38038 0 3.08289V94.0282C0 95.7307 1.38038 97.1111 3.08289 97.1111H73.9894C75.6919 97.1111 77.0723 95.7307 77.0723 94.0282V3.08289C77.0723 1.38038 75.6919 0 73.9894 0ZM73.9894 3.08289V15.4145H3.08289V3.08289H73.9894ZM3.08289 94.0282V18.4973H73.9894V94.0282H3.08289Z" fill="#FE9F09"/>
<path d="M9.24934 13.8727C11.8031 13.8727 13.8737 11.8021 13.8737 9.24836C13.8737 6.69459 11.8031 4.62402 9.24934 4.62402C6.69556 4.62402 4.625 6.69459 4.625 9.24836C4.625 11.8021 6.69556 13.8727 9.24934 13.8727ZM9.24934 7.70691C10.1006 7.70691 10.7908 8.3971 10.7908 9.24836C10.7908 10.0996 10.1006 10.7898 9.24934 10.7898C8.39808 10.7898 7.70789 10.0996 7.70789 9.24836C7.70789 8.3971 8.39808 7.70691 9.24934 7.70691Z" fill="#FE9F09"/>
<path d="M20.0384 13.8727C22.5922 13.8727 24.6627 11.8021 24.6627 9.24836C24.6627 6.69459 22.5922 4.62402 20.0384 4.62402C17.4846 4.62402 15.4141 6.69459 15.4141 9.24836C15.4141 11.8021 17.4846 13.8727 20.0384 13.8727ZM20.0384 7.70691C20.8897 7.70691 21.5798 8.3971 21.5798 9.24836C21.5798 10.0996 20.8897 10.7898 20.0384 10.7898C19.1871 10.7898 18.497 10.0996 18.497 9.24836C18.497 8.3971 19.1871 7.70691 20.0384 7.70691Z" fill="#FE9F09"/>
<path d="M30.8294 13.8727C33.3832 13.8727 35.4537 11.8021 35.4537 9.24836C35.4537 6.69459 33.3832 4.62402 30.8294 4.62402C28.2756 4.62402 26.2051 6.69459 26.2051 9.24836C26.2051 11.8021 28.2756 13.8727 30.8294 13.8727ZM30.8294 7.70691C31.6807 7.70691 32.3709 8.3971 32.3709 9.24836C32.3709 10.0996 31.6807 10.7898 30.8294 10.7898C29.9782 10.7898 29.288 10.0996 29.288 9.24836C29.288 8.3971 29.9782 7.70691 30.8294 7.70691Z" fill="#FE9F09"/>
<path d="M69.3657 9.24891H70.9071C71.7584 9.24891 72.4486 8.55872 72.4486 7.70746C72.4486 6.8562 71.7584 6.16602 70.9071 6.16602H69.3657C68.5144 6.16602 67.8242 6.8562 67.8242 7.70746C67.8242 8.55872 68.5144 9.24891 69.3657 9.24891Z" fill="#FE9F09"/>
<path d="M52.4086 9.24891H64.7402C65.5915 9.24891 66.2816 8.55872 66.2816 7.70746C66.2816 6.8562 65.5915 6.16602 64.7402 6.16602H52.4086C51.5574 6.16602 50.8672 6.8562 50.8672 7.70746C50.8672 8.55872 51.5574 9.24891 52.4086 9.24891Z" fill="#FE9F09"/>
<path d="M33.099 52.6341L31.2046 58.4642C30.9991 59.0987 31.2256 59.7941 31.7653 60.1855C32.3057 60.5777 33.0365 60.5777 33.5769 60.1855L38.5355 56.5833L43.494 60.1855C44.0344 60.5777 44.7652 60.5777 45.3056 60.1855C45.8453 59.7941 46.0718 59.0987 45.8664 58.4642L43.9719 52.6341L48.9297 49.0319C49.4693 48.639 49.6959 47.9435 49.4897 47.3083C49.2827 46.673 48.6911 46.2433 48.0227 46.2433H41.8961L40.0016 40.4169C39.7932 39.784 39.2031 39.3564 38.537 39.3564C37.8709 39.3564 37.2808 39.784 37.0723 40.4169L35.1748 46.2433H29.0482C28.3798 46.2433 27.7882 46.673 27.5813 47.3083C27.375 47.9435 27.6016 48.639 28.1412 49.0319L33.099 52.6341ZM36.2956 49.3262C36.9632 49.3262 37.5555 48.8964 37.7617 48.2612L38.5325 45.8797L39.3032 48.2612C39.5094 48.8964 40.101 49.3262 40.7694 49.3262H43.2742L41.248 50.7984C40.7084 51.1905 40.4818 51.8852 40.6873 52.5197L41.458 54.9034L39.4326 53.4312C38.8922 53.0383 38.1599 53.0383 37.6195 53.4312L35.5941 54.9034L36.3648 52.5197C36.5703 51.8852 36.3437 51.1905 35.8041 50.7984L33.7907 49.3262H36.2956Z" fill="#FE9F09"/>
<path d="M20.8508 52.6341L25.8086 49.0319C26.3482 48.639 26.5748 47.9435 26.3686 47.3083C26.1616 46.673 25.57 46.2433 24.9016 46.2433H18.775L16.8805 40.4169C16.6721 39.784 16.082 39.3564 15.4159 39.3564C14.7498 39.3564 14.1597 39.784 13.9512 40.4169L12.0537 46.2433H5.92711C5.25875 46.2433 4.66716 46.673 4.46017 47.3083C4.25395 47.9435 4.4805 48.639 5.02015 49.0319L9.97792 52.6341L8.08347 58.4642C7.878 59.0987 8.10455 59.7941 8.6442 60.1855C9.18461 60.5777 9.91545 60.5777 10.4559 60.1855L15.4144 56.5833L20.3729 60.1855C20.9133 60.5777 21.6441 60.5777 22.1845 60.1855C22.7242 59.7941 22.9507 59.0987 22.7453 58.4642L20.8508 52.6341ZM17.5722 52.5197L18.343 54.9034L16.3176 53.4312C15.7772 53.0383 15.0456 53.0383 14.5052 53.4312L12.4798 54.9034L13.2505 52.5197C13.4552 51.8852 13.2294 51.1905 12.689 50.7984L10.6696 49.3262H13.1745C13.8421 49.3262 14.4344 48.8964 14.6406 48.2612L15.4114 45.8797L16.1821 48.2612C16.3883 48.8964 16.9799 49.3262 17.6483 49.3262H20.1531L18.127 50.7984C17.5896 51.192 17.366 51.8867 17.5722 52.5197Z" fill="#FE9F09"/>
<path d="M72.6119 47.3083C72.4057 46.673 71.8141 46.2433 71.1458 46.2433H65.0191L63.1247 40.4169C62.9162 39.784 62.3261 39.3564 61.66 39.3564C60.9939 39.3564 60.4038 39.784 60.1953 40.4169L58.2979 46.2433H52.1712C51.5029 46.2433 50.9113 46.673 50.7043 47.3083C50.4981 47.9435 50.7246 48.639 51.2643 49.0319L56.2221 52.6341L54.3276 58.4642C54.1221 59.0987 54.3487 59.7941 54.8883 60.1855C55.4288 60.5777 56.1596 60.5777 56.7 60.1855L61.6585 56.5833L66.617 60.1855C67.1574 60.5777 67.8883 60.5777 68.4287 60.1855C68.9683 59.7941 69.1949 59.0987 68.9894 58.4642L67.095 52.6341L72.0527 49.0319C72.5924 48.639 72.8182 47.9435 72.6119 47.3083ZM63.8164 52.5197L64.5871 54.9034L62.5617 53.4312C62.0213 53.0383 61.2897 53.0383 60.7493 53.4312L58.7239 54.9034L59.4946 52.5197C59.6993 51.8852 59.4735 51.1905 58.9331 50.7984L56.9137 49.3262H59.4186C60.0862 49.3262 60.6785 48.8964 60.8848 48.2612L61.6555 45.8797L62.4262 48.2612C62.6324 48.8964 63.224 49.3262 63.8924 49.3262H66.3972L64.3711 50.7984C63.8337 51.192 63.6102 51.8867 63.8164 52.5197Z" fill="#FE9F09"/>
<path d="M52.4105 72.4482H24.6645C23.8132 72.4482 23.123 73.1384 23.123 73.9897C23.123 74.8409 23.8132 75.5311 24.6645 75.5311H52.4105C53.2618 75.5311 53.952 74.8409 53.952 73.9897C53.952 73.1384 53.2618 72.4482 52.4105 72.4482Z" fill="#FE9F09"/>
<path d="M60.1161 72.4482H58.5746C57.7234 72.4482 57.0332 73.1384 57.0332 73.9897C57.0332 74.8409 57.7234 75.5311 58.5746 75.5311H60.1161C60.9674 75.5311 61.6575 74.8409 61.6575 73.9897C61.6575 73.1384 60.9674 72.4482 60.1161 72.4482Z" fill="#FE9F09"/>
</svg>
