<svg width="76" height="76" viewBox="0 0 76 76" fill="none" xmlns="http://www.w3.org/2000/svg">
<path d="M7.3125 31.6914C6.58936 31.6914 5.88247 31.9058 5.2812 32.3076C4.67993 32.7093 4.2113 33.2804 3.93457 33.9485C3.65783 34.6166 3.58543 35.3517 3.72651 36.061C3.86758 36.7702 4.21581 37.4217 4.72714 37.933C5.23848 38.4444 5.88996 38.7926 6.5992 38.9337C7.30845 39.0747 8.0436 39.0023 8.71169 38.7256C9.37978 38.4489 9.95081 37.9802 10.3526 37.379C10.7543 36.7777 10.9688 36.0708 10.9688 35.3477C10.9677 34.3783 10.5821 33.4489 9.89666 32.7635C9.21121 32.0781 8.28187 31.6925 7.3125 31.6914ZM7.3125 36.5664C7.07146 36.5664 6.83582 36.4949 6.6354 36.361C6.43498 36.2271 6.27877 36.0367 6.18652 35.8141C6.09428 35.5914 6.07014 35.3463 6.11717 35.1099C6.1642 34.8735 6.28027 34.6563 6.45072 34.4859C6.62116 34.3154 6.83832 34.1994 7.07474 34.1523C7.31115 34.1053 7.5562 34.1294 7.7789 34.2217C8.00159 34.3139 8.19194 34.4701 8.32586 34.6706C8.45977 34.871 8.53125 35.1066 8.53125 35.3477C8.53089 35.6708 8.40237 35.9806 8.17389 36.209C7.94541 36.4375 7.63562 36.566 7.3125 36.5664Z" fill="#C149FF"/>
<path d="M12.1875 32.9102C12.1875 33.2334 12.3159 33.5434 12.5445 33.7719C12.773 34.0005 13.083 34.1289 13.4062 34.1289H29.25C29.5732 34.1289 29.8832 34.0005 30.1118 33.7719C30.3403 33.5434 30.4688 33.2334 30.4688 32.9102C30.4688 32.5869 30.3403 32.2769 30.1118 32.0484C29.8832 31.8198 29.5732 31.6914 29.25 31.6914H13.4062C13.083 31.6914 12.773 31.8198 12.5445 32.0484C12.3159 32.2769 12.1875 32.5869 12.1875 32.9102Z" fill="#C149FF"/>
<path d="M19.5 35.3477H13.4062C13.083 35.3477 12.773 35.4761 12.5445 35.7046C12.3159 35.9332 12.1875 36.2432 12.1875 36.5664C12.1875 36.8896 12.3159 37.1996 12.5445 37.4282C12.773 37.6568 13.083 37.7852 13.4062 37.7852H19.5C19.8232 37.7852 20.1332 37.6568 20.3618 37.4282C20.5903 37.1996 20.7188 36.8896 20.7188 36.5664C20.7188 36.2432 20.5903 35.9332 20.3618 35.7046C20.1332 35.4761 19.8232 35.3477 19.5 35.3477Z" fill="#C149FF"/>
<path d="M24.375 35.3477H23.1562C22.833 35.3477 22.523 35.4761 22.2945 35.7046C22.0659 35.9332 21.9375 36.2432 21.9375 36.5664C21.9375 36.8896 22.0659 37.1996 22.2945 37.4282C22.523 37.6568 22.833 37.7852 23.1562 37.7852H24.375C24.6982 37.7852 25.0082 37.6568 25.2368 37.4282C25.4653 37.1996 25.5938 36.8896 25.5938 36.5664C25.5938 36.2432 25.4653 35.9332 25.2368 35.7046C25.0082 35.4761 24.6982 35.3477 24.375 35.3477Z" fill="#C149FF"/>
<path d="M7.3125 54.8477C8.03564 54.8477 8.74254 54.6332 9.3438 54.2315C9.94507 53.8297 10.4137 53.2587 10.6904 52.5906C10.9672 51.9225 11.0396 51.1874 10.8985 50.4781C10.7574 49.7689 10.4092 49.1174 9.89786 48.6061C9.38652 48.0947 8.73504 47.7465 8.0258 47.6054C7.31656 47.4643 6.58141 47.5367 5.91331 47.8135C5.24522 48.0902 4.67419 48.5588 4.27244 49.1601C3.87069 49.7614 3.65625 50.4683 3.65625 51.1914C3.65734 52.1608 4.0429 53.0901 4.72834 53.7756C5.41379 54.461 6.34314 54.8466 7.3125 54.8477ZM7.3125 49.9727C7.55355 49.9727 7.78918 50.0441 7.9896 50.1781C8.19002 50.312 8.34623 50.5023 8.43848 50.725C8.53072 50.9477 8.55486 51.1928 8.50783 51.4292C8.46081 51.6656 8.34473 51.8828 8.17429 52.0532C8.00384 52.2236 7.78668 52.3397 7.55027 52.3867C7.31385 52.4338 7.0688 52.4096 6.8461 52.3174C6.62341 52.2251 6.43306 52.0689 6.29915 51.8685C6.16523 51.6681 6.09375 51.4325 6.09375 51.1914C6.09411 50.8683 6.22263 50.5585 6.45111 50.33C6.6796 50.1015 6.98938 49.973 7.3125 49.9727Z" fill="#C149FF"/>
<path d="M13.4062 49.9727H29.25C29.5732 49.9727 29.8832 49.8443 30.1118 49.6157C30.3403 49.3871 30.4688 49.0771 30.4688 48.7539C30.4688 48.4307 30.3403 48.1207 30.1118 47.8921C29.8832 47.6636 29.5732 47.5352 29.25 47.5352H13.4062C13.083 47.5352 12.773 47.6636 12.5445 47.8921C12.3159 48.1207 12.1875 48.4307 12.1875 48.7539C12.1875 49.0771 12.3159 49.3871 12.5445 49.6157C12.773 49.8443 13.083 49.9727 13.4062 49.9727Z" fill="#C149FF"/>
<path d="M13.4062 53.6289H19.5C19.8232 53.6289 20.1332 53.5005 20.3618 53.2719C20.5903 53.0434 20.7188 52.7334 20.7188 52.4102C20.7188 52.0869 20.5903 51.7769 20.3618 51.5484C20.1332 51.3198 19.8232 51.1914 19.5 51.1914H13.4062C13.083 51.1914 12.773 51.3198 12.5445 51.5484C12.3159 51.7769 12.1875 52.0869 12.1875 52.4102C12.1875 52.7334 12.3159 53.0434 12.5445 53.2719C12.773 53.5005 13.083 53.6289 13.4062 53.6289Z" fill="#C149FF"/>
<path d="M24.375 51.1914H23.1562C22.833 51.1914 22.523 51.3198 22.2945 51.5484C22.0659 51.7769 21.9375 52.0869 21.9375 52.4102C21.9375 52.7334 22.0659 53.0434 22.2945 53.2719C22.523 53.5005 22.833 53.6289 23.1562 53.6289H24.375C24.6982 53.6289 25.0082 53.5005 25.2368 53.2719C25.4653 53.0434 25.5938 52.7334 25.5938 52.4102C25.5938 52.0869 25.4653 51.7769 25.2368 51.5484C25.0082 51.3198 24.6982 51.1914 24.375 51.1914Z" fill="#C149FF"/>
<path d="M7.3125 63.3789C6.58936 63.3789 5.88247 63.5933 5.2812 63.9951C4.67993 64.3969 4.2113 64.9679 3.93457 65.636C3.65783 66.3041 3.58543 67.0392 3.72651 67.7485C3.86758 68.4577 4.21581 69.1092 4.72714 69.6205C5.23848 70.1319 5.88996 70.4801 6.5992 70.6212C7.30845 70.7622 8.0436 70.6898 8.71169 70.4131C9.37978 70.1364 9.95081 69.6677 10.3526 69.0665C10.7543 68.4652 10.9688 67.7583 10.9688 67.0352C10.9677 66.0658 10.5821 65.1364 9.89666 64.451C9.21121 63.7656 8.28187 63.38 7.3125 63.3789ZM7.3125 68.2539C7.07146 68.2539 6.83582 68.1824 6.6354 68.0485C6.43498 67.9146 6.27877 67.7243 6.18652 67.5016C6.09428 67.2789 6.07014 67.0338 6.11717 66.7974C6.1642 66.561 6.28027 66.3438 6.45072 66.1734C6.62116 66.0029 6.83832 65.8869 7.07474 65.8398C7.31115 65.7928 7.5562 65.8169 7.7789 65.9092C8.00159 66.0014 8.19194 66.1576 8.32586 66.3581C8.45977 66.5585 8.53125 66.7941 8.53125 67.0352C8.53089 67.3583 8.40237 67.6681 8.17389 67.8965C7.94541 68.125 7.63562 68.2535 7.3125 68.2539Z" fill="#C149FF"/>
<path d="M29.25 63.3789H13.4062C13.083 63.3789 12.773 63.5073 12.5445 63.7359C12.3159 63.9644 12.1875 64.2744 12.1875 64.5977C12.1875 64.9209 12.3159 65.2309 12.5445 65.4594C12.773 65.688 13.083 65.8164 13.4062 65.8164H29.25C29.5732 65.8164 29.8832 65.688 30.1118 65.4594C30.3403 65.2309 30.4688 64.9209 30.4688 64.5977C30.4688 64.2744 30.3403 63.9644 30.1118 63.7359C29.8832 63.5073 29.5732 63.3789 29.25 63.3789Z" fill="#C149FF"/>
<path d="M19.5 67.0352H13.4062C13.083 67.0352 12.773 67.1636 12.5445 67.3921C12.3159 67.6207 12.1875 67.9307 12.1875 68.2539C12.1875 68.5771 12.3159 68.8871 12.5445 69.1157C12.773 69.3443 13.083 69.4727 13.4062 69.4727H19.5C19.8232 69.4727 20.1332 69.3443 20.3618 69.1157C20.5903 68.8871 20.7188 68.5771 20.7188 68.2539C20.7188 67.9307 20.5903 67.6207 20.3618 67.3921C20.1332 67.1636 19.8232 67.0352 19.5 67.0352Z" fill="#C149FF"/>
<path d="M24.375 67.0352H23.1562C22.833 67.0352 22.523 67.1636 22.2945 67.3921C22.0659 67.6207 21.9375 67.9307 21.9375 68.2539C21.9375 68.5771 22.0659 68.8871 22.2945 69.1157C22.523 69.3443 22.833 69.4727 23.1562 69.4727H24.375C24.6982 69.4727 25.0082 69.3443 25.2368 69.1157C25.4653 68.8871 25.5938 68.5771 25.5938 68.2539C25.5938 67.9307 25.4653 67.6207 25.2368 67.3921C25.0082 67.1636 24.6982 67.0352 24.375 67.0352Z" fill="#C149FF"/>
<path d="M70.6875 25.5984H62.1562C62.0878 25.599 62.0196 25.6051 61.9521 25.6167C61.7713 25.0993 61.4768 24.629 61.0904 24.2403C60.7039 23.8517 60.2352 23.5547 59.7188 23.3711V8.53588C59.7188 8.21264 59.5903 7.90265 59.3618 7.67409C59.1332 7.44553 58.8232 7.31713 58.5 7.31713H46.2257C45.9336 5.28574 44.919 3.42772 43.368 2.08376C41.817 0.739806 39.8335 0 37.7812 0C35.729 0 33.7455 0.739806 32.1945 2.08376C30.6435 3.42772 29.6289 5.28574 29.3368 7.31713H17.0625C16.7393 7.31713 16.4293 7.44553 16.2007 7.67409C15.9722 7.90265 15.8438 8.21264 15.8438 8.53588V23.3711C15.3299 23.5539 14.8632 23.8489 14.4776 24.2347C14.0921 24.6205 13.7974 25.0874 13.615 25.6014C13.5967 25.5999 13.5769 25.5984 13.5586 25.5984H4.875C3.58244 25.5996 2.34317 26.1136 1.42919 27.0276C0.515213 27.9415 0.00121007 29.1808 0 30.4734V70.6921C0.00121007 71.9847 0.515213 73.224 1.42919 74.1379C2.34317 75.0519 3.58244 75.5659 4.875 75.5671H29.25C30.5425 75.5657 31.7816 75.0516 32.6955 74.1377C33.6095 73.2237 34.1235 71.9846 34.125 70.6921V30.4734C34.1235 29.1809 33.6095 27.9418 32.6955 27.0278C31.7816 26.1139 30.5425 25.5998 29.25 25.5984H20.7188C20.6503 25.599 20.5821 25.6051 20.5146 25.6167C20.3338 25.0993 20.0393 24.629 19.6528 24.2403C19.2664 23.8517 18.7977 23.5547 18.2812 23.3711V9.75463H29.3368C29.6289 11.786 30.6435 13.644 32.1945 14.988C33.7455 16.3319 35.729 17.0718 37.7812 17.0718C39.8335 17.0718 41.817 16.3319 43.368 14.988C44.919 13.644 45.9336 11.786 46.2257 9.75463H57.2812V23.3711C56.7674 23.5539 56.3007 23.8489 55.9151 24.2347C55.5296 24.6205 55.2349 25.0874 55.0525 25.6014C55.0342 25.5999 55.0144 25.5984 54.9961 25.5984H46.3125C45.02 25.5998 43.7809 26.1139 42.867 27.0278C41.953 27.9418 41.439 29.1809 41.4375 30.4734V70.6921C41.439 71.9846 41.953 73.2237 42.867 74.1377C43.7809 75.0516 45.02 75.5657 46.3125 75.5671H70.6875C71.98 75.5657 73.2191 75.0516 74.133 74.1377C75.047 73.2237 75.5611 71.9846 75.5625 70.6921V30.4734C75.5611 29.1809 75.047 27.9418 74.133 27.0278C73.2191 26.1139 71.98 25.5998 70.6875 25.5984ZM17.0625 25.5984C17.3035 25.5984 17.5392 25.6699 17.7396 25.8038C17.94 25.9377 18.0962 26.128 18.1885 26.3507C18.2807 26.5734 18.3049 26.8185 18.2578 27.0549C18.2108 27.2913 18.0947 27.5085 17.9243 27.6789C17.7538 27.8494 17.5367 27.9654 17.3003 28.0125C17.0639 28.0595 16.8188 28.0353 16.5961 27.9431C16.3734 27.8509 16.1831 27.6947 16.0491 27.4942C15.9152 27.2938 15.8438 27.0582 15.8438 26.8171C15.8442 26.494 15.9727 26.1843 16.2012 25.9558C16.4297 25.7274 16.7394 25.5988 17.0625 25.5984ZM31.6875 70.6921C31.6867 71.3383 31.4296 71.9578 30.9726 72.4148C30.5157 72.8717 29.8962 73.1288 29.25 73.1296H4.875C4.22879 73.1288 3.6093 72.8717 3.15236 72.4148C2.69543 71.9578 2.43835 71.3383 2.4375 70.6921V59.7234H31.6875V70.6921ZM31.6875 57.2859H2.4375V43.8796H31.6875V57.2859ZM20.5146 28.0176C20.5821 28.0291 20.6503 28.0352 20.7188 28.0359H29.25C29.8962 28.0367 30.5157 28.2938 30.9726 28.7507C31.4296 29.2077 31.6867 29.8272 31.6875 30.4734V41.4421H2.4375V30.4734C2.43835 29.8272 2.69543 29.2077 3.15236 28.7507C3.6093 28.2938 4.22879 28.0367 4.875 28.0359H13.5586C13.5769 28.0359 13.5967 28.0344 13.615 28.0328C13.8667 28.7477 14.3345 29.3666 14.9536 29.8038C15.5726 30.2411 16.3123 30.4751 17.0702 30.4734C17.8281 30.4717 18.5667 30.2345 19.1838 29.7945C19.8009 29.3545 20.266 28.7336 20.5146 28.0176ZM31.7469 9.37986C31.7072 9.10029 31.6873 8.81826 31.6875 8.53588C31.6884 7.1314 32.1739 5.77026 33.0621 4.68226C33.9503 3.59427 35.1866 2.84607 36.5625 2.564V7.67513L31.7469 9.37986ZM37.7812 14.6296C36.7302 14.6278 35.6974 14.3551 34.7824 13.838C33.8674 13.3208 33.1011 12.5767 32.5574 11.6772L37.4629 9.94201L41.142 13.6211C40.1457 14.2814 38.9764 14.6323 37.7812 14.6296ZM42.8665 11.8966L39 8.03162V2.564C39.9767 2.7639 40.8896 3.20024 41.6585 3.83481C42.4275 4.46939 43.0291 5.28283 43.4107 6.20389C43.7923 7.12495 43.9422 8.12553 43.8473 9.11799C43.7524 10.1104 43.4157 11.0645 42.8665 11.8966ZM58.5 25.5984C58.741 25.5984 58.9767 25.6699 59.1771 25.8038C59.3775 25.9377 59.5337 26.128 59.626 26.3507C59.7182 26.5734 59.7424 26.8185 59.6953 27.0549C59.6483 27.2913 59.5322 27.5085 59.3618 27.6789C59.1913 27.8494 58.9742 27.9654 58.7378 28.0125C58.5014 28.0595 58.2563 28.0353 58.0336 27.9431C57.8109 27.8509 57.6206 27.6947 57.4866 27.4942C57.3527 27.2938 57.2812 27.0582 57.2812 26.8171C57.2817 26.494 57.4102 26.1843 57.6387 25.9558C57.8672 25.7274 58.1769 25.5988 58.5 25.5984ZM73.125 70.6921C73.1242 71.3383 72.8671 71.9578 72.4101 72.4148C71.9532 72.8717 71.3337 73.1288 70.6875 73.1296H46.3125C45.6663 73.1288 45.0468 72.8717 44.5899 72.4148C44.1329 71.9578 43.8758 71.3383 43.875 70.6921V59.7234H73.125V70.6921ZM73.125 57.2859H43.875V43.8796H73.125V57.2859ZM73.125 41.4421H43.875V30.4734C43.8758 29.8272 44.1329 29.2077 44.5899 28.7507C45.0468 28.2938 45.6663 28.0367 46.3125 28.0359H54.9961C55.0144 28.0359 55.0342 28.0344 55.0525 28.0328C55.3042 28.7477 55.772 29.3666 56.3911 29.8038C57.0101 30.2411 57.7498 30.4751 58.5077 30.4734C59.2656 30.4717 60.0042 30.2345 60.6213 29.7945C61.2384 29.3545 61.7035 28.7336 61.9521 28.0176C62.0196 28.0291 62.0878 28.0352 62.1562 28.0359H70.6875C71.3337 28.0367 71.9532 28.2938 72.4101 28.7507C72.8671 29.2077 73.1242 29.8272 73.125 30.4734V41.4421Z" fill="#C149FF"/>
<path d="M48.75 39.0039C49.4731 39.0039 50.18 38.7895 50.7813 38.3877C51.3826 37.986 51.8512 37.4149 52.1279 36.7468C52.4047 36.0788 52.4771 35.3436 52.336 34.6344C52.1949 33.9251 51.8467 33.2736 51.3354 32.7623C50.824 32.251 50.1725 31.9027 49.4633 31.7617C48.7541 31.6206 48.0189 31.693 47.3508 31.9697C46.6827 32.2465 46.1117 32.7151 45.7099 33.3164C45.3082 33.9176 45.0938 34.6245 45.0938 35.3477C45.0948 36.317 45.4804 37.2464 46.1658 37.9318C46.8513 38.6173 47.7806 39.0028 48.75 39.0039ZM48.75 34.1289C48.991 34.1289 49.2267 34.2004 49.4271 34.3343C49.6275 34.4682 49.7837 34.6586 49.876 34.8813C49.9682 35.104 49.9924 35.349 49.9453 35.5854C49.8983 35.8218 49.7822 36.039 49.6118 36.2094C49.4413 36.3799 49.2242 36.496 48.9878 36.543C48.7514 36.59 48.5063 36.5659 48.2836 36.4736C48.0609 36.3814 47.8706 36.2252 47.7366 36.0248C47.6027 35.8243 47.5312 35.5887 47.5312 35.3477C47.5316 35.0245 47.6601 34.7148 47.8886 34.4863C48.1171 34.2578 48.4269 34.1293 48.75 34.1289Z" fill="#C149FF"/>
<path d="M54.8438 34.1289H70.6875C71.0107 34.1289 71.3207 34.0005 71.5493 33.7719C71.7778 33.5434 71.9062 33.2334 71.9062 32.9102C71.9062 32.5869 71.7778 32.2769 71.5493 32.0484C71.3207 31.8198 71.0107 31.6914 70.6875 31.6914H54.8438C54.5205 31.6914 54.2105 31.8198 53.982 32.0484C53.7534 32.2769 53.625 32.5869 53.625 32.9102C53.625 33.2334 53.7534 33.5434 53.982 33.7719C54.2105 34.0005 54.5205 34.1289 54.8438 34.1289Z" fill="#C149FF"/>
<path d="M54.8438 37.7852H60.9375C61.2607 37.7852 61.5707 37.6568 61.7993 37.4282C62.0278 37.1996 62.1562 36.8896 62.1562 36.5664C62.1562 36.2432 62.0278 35.9332 61.7993 35.7046C61.5707 35.4761 61.2607 35.3477 60.9375 35.3477H54.8438C54.5205 35.3477 54.2105 35.4761 53.982 35.7046C53.7534 35.9332 53.625 36.2432 53.625 36.5664C53.625 36.8896 53.7534 37.1996 53.982 37.4282C54.2105 37.6568 54.5205 37.7852 54.8438 37.7852Z" fill="#C149FF"/>
<path d="M65.8125 35.3477H64.5938C64.2705 35.3477 63.9605 35.4761 63.732 35.7046C63.5034 35.9332 63.375 36.2432 63.375 36.5664C63.375 36.8896 63.5034 37.1996 63.732 37.4282C63.9605 37.6568 64.2705 37.7852 64.5938 37.7852H65.8125C66.1357 37.7852 66.4457 37.6568 66.6743 37.4282C66.9028 37.1996 67.0312 36.8896 67.0312 36.5664C67.0312 36.2432 66.9028 35.9332 66.6743 35.7046C66.4457 35.4761 66.1357 35.3477 65.8125 35.3477Z" fill="#C149FF"/>
<path d="M48.75 47.5352C48.0269 47.5352 47.32 47.7496 46.7187 48.1513C46.1174 48.5531 45.6488 49.1241 45.3721 49.7922C45.0953 50.4603 45.0229 51.1955 45.164 51.9047C45.3051 52.6139 45.6533 53.2654 46.1646 53.7768C46.676 54.2881 47.3275 54.6363 48.0367 54.7774C48.7459 54.9185 49.4811 54.8461 50.1492 54.5693C50.8173 54.2926 51.3883 53.824 51.7901 53.2227C52.1918 52.6214 52.4062 51.9145 52.4062 51.1914C52.4052 50.222 52.0196 49.2927 51.3342 48.6072C50.6487 47.9218 49.7194 47.5362 48.75 47.5352ZM48.75 52.4102C48.509 52.4102 48.2733 52.3387 48.0729 52.2048C47.8725 52.0708 47.7163 51.8805 47.624 51.6578C47.5318 51.4351 47.5076 51.1901 47.5547 50.9536C47.6017 50.7172 47.7178 50.5001 47.8882 50.3296C48.0587 50.1592 48.2758 50.0431 48.5122 49.9961C48.7486 49.949 48.9937 49.9732 49.2164 50.0654C49.4391 50.1577 49.6294 50.3139 49.7634 50.5143C49.8973 50.7147 49.9688 50.9504 49.9688 51.1914C49.9684 51.5145 49.8399 51.8243 49.6114 52.0528C49.3829 52.2813 49.0731 52.4098 48.75 52.4102Z" fill="#C149FF"/>
<path d="M70.6875 47.5352H54.8438C54.5205 47.5352 54.2105 47.6636 53.982 47.8921C53.7534 48.1207 53.625 48.4307 53.625 48.7539C53.625 49.0771 53.7534 49.3871 53.982 49.6157C54.2105 49.8443 54.5205 49.9727 54.8438 49.9727H70.6875C71.0107 49.9727 71.3207 49.8443 71.5493 49.6157C71.7778 49.3871 71.9062 49.0771 71.9062 48.7539C71.9062 48.4307 71.7778 48.1207 71.5493 47.8921C71.3207 47.6636 71.0107 47.5352 70.6875 47.5352Z" fill="#C149FF"/>
<path d="M60.9375 51.1914H54.8438C54.5205 51.1914 54.2105 51.3198 53.982 51.5484C53.7534 51.7769 53.625 52.0869 53.625 52.4102C53.625 52.7334 53.7534 53.0434 53.982 53.2719C54.2105 53.5005 54.5205 53.6289 54.8438 53.6289H60.9375C61.2607 53.6289 61.5707 53.5005 61.7993 53.2719C62.0278 53.0434 62.1562 52.7334 62.1562 52.4102C62.1562 52.0869 62.0278 51.7769 61.7993 51.5484C61.5707 51.3198 61.2607 51.1914 60.9375 51.1914Z" fill="#C149FF"/>
<path d="M65.8125 51.1914H64.5938C64.2705 51.1914 63.9605 51.3198 63.732 51.5484C63.5034 51.7769 63.375 52.0869 63.375 52.4102C63.375 52.7334 63.5034 53.0434 63.732 53.2719C63.9605 53.5005 64.2705 53.6289 64.5938 53.6289H65.8125C66.1357 53.6289 66.4457 53.5005 66.6743 53.2719C66.9028 53.0434 67.0312 52.7334 67.0312 52.4102C67.0312 52.0869 66.9028 51.7769 66.6743 51.5484C66.4457 51.3198 66.1357 51.1914 65.8125 51.1914Z" fill="#C149FF"/>
<path d="M48.75 63.3789C48.0269 63.3789 47.32 63.5933 46.7187 63.9951C46.1174 64.3969 45.6488 64.9679 45.3721 65.636C45.0953 66.3041 45.0229 67.0392 45.164 67.7485C45.3051 68.4577 45.6533 69.1092 46.1646 69.6205C46.676 70.1319 47.3275 70.4801 48.0367 70.6212C48.7459 70.7622 49.4811 70.6898 50.1492 70.4131C50.8173 70.1364 51.3883 69.6677 51.7901 69.0665C52.1918 68.4652 52.4062 67.7583 52.4062 67.0352C52.4052 66.0658 52.0196 65.1364 51.3342 64.451C50.6487 63.7656 49.7194 63.38 48.75 63.3789ZM48.75 68.2539C48.509 68.2539 48.2733 68.1824 48.0729 68.0485C47.8725 67.9146 47.7163 67.7243 47.624 67.5016C47.5318 67.2789 47.5076 67.0338 47.5547 66.7974C47.6017 66.561 47.7178 66.3438 47.8882 66.1734C48.0587 66.0029 48.2758 65.8869 48.5122 65.8398C48.7486 65.7928 48.9937 65.8169 49.2164 65.9092C49.4391 66.0014 49.6294 66.1576 49.7634 66.3581C49.8973 66.5585 49.9688 66.7941 49.9688 67.0352C49.9684 67.3583 49.8399 67.6681 49.6114 67.8965C49.3829 68.125 49.0731 68.2535 48.75 68.2539Z" fill="#C149FF"/>
<path d="M70.6875 63.3789H54.8438C54.5205 63.3789 54.2105 63.5073 53.982 63.7359C53.7534 63.9644 53.625 64.2744 53.625 64.5977C53.625 64.9209 53.7534 65.2309 53.982 65.4594C54.2105 65.688 54.5205 65.8164 54.8438 65.8164H70.6875C71.0107 65.8164 71.3207 65.688 71.5493 65.4594C71.7778 65.2309 71.9062 64.9209 71.9062 64.5977C71.9062 64.2744 71.7778 63.9644 71.5493 63.7359C71.3207 63.5073 71.0107 63.3789 70.6875 63.3789Z" fill="#C149FF"/>
<path d="M60.9375 67.0352H54.8438C54.5205 67.0352 54.2105 67.1636 53.982 67.3921C53.7534 67.6207 53.625 67.9307 53.625 68.2539C53.625 68.5771 53.7534 68.8871 53.982 69.1157C54.2105 69.3443 54.5205 69.4727 54.8438 69.4727H60.9375C61.2607 69.4727 61.5707 69.3443 61.7993 69.1157C62.0278 68.8871 62.1562 68.5771 62.1562 68.2539C62.1562 67.9307 62.0278 67.6207 61.7993 67.3921C61.5707 67.1636 61.2607 67.0352 60.9375 67.0352Z" fill="#C149FF"/>
<path d="M65.8125 67.0352H64.5938C64.2705 67.0352 63.9605 67.1636 63.732 67.3921C63.5034 67.6207 63.375 67.9307 63.375 68.2539C63.375 68.5771 63.5034 68.8871 63.732 69.1157C63.9605 69.3443 64.2705 69.4727 64.5938 69.4727H65.8125C66.1357 69.4727 66.4457 69.3443 66.6743 69.1157C66.9028 68.8871 67.0312 68.5771 67.0312 68.2539C67.0312 67.9307 66.9028 67.6207 66.6743 67.3921C66.4457 67.1636 66.1357 67.0352 65.8125 67.0352Z" fill="#C149FF"/>
</svg>
