<svg width="80" height="80" viewBox="0 0 80 80" fill="none" xmlns="http://www.w3.org/2000/svg">
<path d="M39 40.6C39 40.9713 39.1442 41.3274 39.4008 41.59C39.6574 41.8525 40.0055 42 40.3684 42H50.6316C50.9945 42 51.3426 41.8525 51.5992 41.59C51.8558 41.3274 52 40.9713 52 40.6V36.4C52 36.0287 51.8558 35.6726 51.5992 35.41C51.3426 35.1475 50.9945 35 50.6316 35H40.3684C40.0055 35 39.6574 35.1475 39.4008 35.41C39.1442 35.6726 39 36.0287 39 36.4V40.6ZM41.7368 37.8H49.2632V39.2H41.7368V37.8Z" fill="#288FFF"/>
<path d="M50.6316 43H40.3684C40.0055 43 39.6574 43.1054 39.4008 43.2929C39.1442 43.4804 39 43.7348 39 44C39 44.2652 39.1442 44.5196 39.4008 44.7071C39.6574 44.8946 40.0055 45 40.3684 45H50.6316C50.9945 45 51.3426 44.8946 51.5992 44.7071C51.8558 44.5196 52 44.2652 52 44C52 43.7348 51.8558 43.4804 51.5992 43.2929C51.3426 43.1054 50.9945 43 50.6316 43Z" fill="#288FFF"/>
<path d="M76.1245 54.3554V25.6446C76.9175 25.4407 77.6507 25.051 78.2633 24.5077C78.876 23.9644 79.3506 23.2831 79.6479 22.5201C79.9451 21.7571 80.0566 20.9344 79.9731 20.1198C79.8895 19.3052 79.6133 18.5222 79.1673 17.8355C78.7213 17.1487 78.1183 16.578 77.4081 16.1704C76.6979 15.7628 75.9009 15.5301 75.083 15.4914C74.2651 15.4528 73.4497 15.6093 72.7042 15.9481C71.9587 16.2869 71.3046 16.7982 70.7958 17.4398L45.0894 6.01553C45.2136 5.27584 45.1751 4.51796 44.9766 3.79466C44.778 3.07137 44.4242 2.40004 43.9398 1.82743C43.4553 1.25482 42.8519 0.794699 42.1715 0.479096C41.4911 0.163494 40.75 0 40 0C39.25 0 38.5089 0.163494 37.8285 0.479096C37.1481 0.794699 36.5447 1.25482 36.0602 1.82743C35.5758 2.40004 35.222 3.07137 35.0234 3.79466C34.8249 4.51796 34.7864 5.27584 34.9106 6.01553L9.20419 17.4398C8.69524 16.7991 8.0412 16.2886 7.29606 15.9506C6.55092 15.6125 5.73606 15.4565 4.91874 15.4955C4.10143 15.5344 3.3051 15.7673 2.59551 16.1747C1.88592 16.5821 1.28342 17.1525 0.837738 17.8388C0.392059 18.525 0.115989 19.3074 0.0323199 20.1213C-0.051349 20.9353 0.0597828 21.7575 0.356541 22.5201C0.653298 23.2826 1.12717 23.9636 1.73904 24.5069C2.3509 25.0502 3.08321 25.4402 3.8755 25.6446V54.3554C3.08246 54.5593 2.34932 54.949 1.73667 55.4923C1.12402 56.0356 0.649441 56.7169 0.352148 57.4799C0.0548546 58.2429 -0.0566179 59.0656 0.0269413 59.8802C0.1105 60.6948 0.386693 61.4778 0.832696 62.1645C1.2787 62.8513 1.88171 63.422 2.5919 63.8296C3.3021 64.2372 4.09908 64.4699 4.91701 64.5086C5.73493 64.5472 6.55032 64.3907 7.29579 64.0519C8.04125 63.7131 8.69541 63.2018 9.20419 62.5602L34.9106 73.9845C34.7864 74.7242 34.8249 75.482 35.0234 76.2053C35.222 76.9286 35.5758 77.6 36.0602 78.1726C36.5447 78.7452 37.1481 79.2053 37.8285 79.5209C38.5089 79.8365 39.25 80 40 80C40.75 80 41.4911 79.8365 42.1715 79.5209C42.8519 79.2053 43.4553 78.7452 43.9398 78.1726C44.4242 77.6 44.778 76.9286 44.9766 76.2053C45.1751 75.482 45.2136 74.7242 45.0894 73.9845L70.7958 62.5602C71.3048 63.2009 71.9588 63.7114 72.7039 64.0494C73.4491 64.3875 74.2639 64.5435 75.0813 64.5045C75.8986 64.4656 76.6949 64.2327 77.4045 63.8253C78.1141 63.4179 78.7166 62.8475 79.1623 62.1612C79.6079 61.475 79.884 60.6926 79.9677 59.8787C80.0514 59.0647 79.9402 58.2425 79.6435 57.4799C79.3467 56.7174 78.8728 56.0364 78.261 55.4931C77.6491 54.9498 76.9168 54.5598 76.1245 54.3554ZM74.8343 18.0668C75.2131 18.0657 75.5874 18.1479 75.9308 18.3076C76.2742 18.4674 76.5782 18.7008 76.8212 18.9912C77.0643 19.2817 77.2404 19.6221 77.3371 19.9883C77.4338 20.3544 77.4487 20.7374 77.3808 21.11C77.3129 21.4826 77.1638 21.8357 76.9441 22.1441C76.7244 22.4526 76.4394 22.709 76.1095 22.895C75.7796 23.081 75.4128 23.1921 75.0352 23.2204C74.6575 23.2487 74.2782 23.1935 73.9243 23.0587L75.4609 22.2051C75.7569 22.0373 75.9746 21.7594 76.0667 21.4318C76.1587 21.1043 76.1177 20.7536 75.9525 20.4561C75.7872 20.1587 75.5112 19.9386 75.1844 19.8437C74.8577 19.7488 74.5066 19.7869 74.2078 19.9495L72.2839 21.0185C72.2273 20.6518 72.2511 20.2773 72.3536 19.9207C72.4561 19.5642 72.6348 19.2342 72.8773 18.9535C73.1199 18.6728 73.4205 18.4481 73.7584 18.2951C74.0963 18.142 74.4634 18.0641 74.8343 18.0668ZM40 2.58461C40.5679 2.58407 41.12 2.77103 41.5707 3.11648C42.0214 3.46192 42.3455 3.94651 42.4925 4.49501C42.6396 5.0435 42.6015 5.62521 42.3841 6.14981C42.1666 6.67441 41.7821 7.11255 41.2902 7.39619V6.45516C41.2902 6.11298 41.1542 5.78482 40.9123 5.54286C40.6703 5.30091 40.3422 5.16498 40 5.16498C39.6578 5.16498 39.3297 5.30091 39.0877 5.54286C38.8458 5.78482 38.7098 6.11298 38.7098 6.45516V7.39619C38.2179 7.11255 37.8334 6.67441 37.6159 6.14981C37.3985 5.62521 37.3604 5.0435 37.5075 4.49501C37.6545 3.94651 37.9786 3.46192 38.4293 3.11648C38.88 2.77103 39.4321 2.58407 40 2.58461ZM2.58534 20.6472C2.5826 20.291 2.65364 19.9381 2.79398 19.6107C2.93433 19.2833 3.14093 18.9885 3.40079 18.7449C3.66065 18.5013 3.96813 18.3141 4.30388 18.1951C4.63963 18.0762 4.99637 18.028 5.35164 18.0537C5.70691 18.0794 6.05302 18.1784 6.36817 18.3444C6.68331 18.5104 6.96068 18.7399 7.18279 19.0183C7.40491 19.2968 7.56697 19.6182 7.65876 19.9624C7.75055 20.3066 7.77009 20.666 7.71615 21.0181L5.7922 19.9492C5.49336 19.7865 5.14235 19.7485 4.81559 19.8434C4.48884 19.9383 4.21279 20.1584 4.04755 20.4558C3.88231 20.7533 3.84126 21.1039 3.93332 21.4315C4.02539 21.7591 4.24313 22.037 4.53913 22.2048L6.07571 23.0584C5.68553 23.2072 5.26501 23.2588 4.85045 23.2087C4.43588 23.1587 4.03972 23.0085 3.69615 22.7711C3.35258 22.5338 3.07192 22.2164 2.8784 21.8464C2.68487 21.4764 2.5843 21.0648 2.58534 20.6472ZM5.16566 61.9332C4.76763 61.9342 4.37474 61.8432 4.01774 61.6671C3.66074 61.4911 3.3493 61.2349 3.10778 60.9185C2.86627 60.6021 2.70123 60.2341 2.62557 59.8433C2.54991 59.4525 2.56568 59.0495 2.67165 58.6658C2.77762 58.2821 2.97092 57.9282 3.23642 57.6316C3.50193 57.3351 3.83244 57.1039 4.20211 56.9564C4.57178 56.8088 4.97058 56.7487 5.36732 56.7809C5.76405 56.813 6.14797 56.9365 6.48905 57.1417L4.53913 58.225C4.3895 58.3065 4.25749 58.4167 4.15071 58.5495C4.04393 58.6822 3.96449 58.8348 3.91699 58.9984C3.86948 59.162 3.85485 59.3334 3.87393 59.5027C3.89301 59.672 3.94544 59.8358 4.02817 59.9847C4.1109 60.1337 4.22231 60.2647 4.35596 60.3704C4.48962 60.476 4.64287 60.5541 4.80687 60.6002C4.97088 60.6463 5.14239 60.6595 5.3115 60.639C5.48062 60.6184 5.64399 60.5646 5.7922 60.4806L7.74357 59.3963C7.7317 60.0726 7.455 60.7171 6.97295 61.1915C6.49089 61.6659 5.84197 61.9322 5.16566 61.9332ZM40 77.4154C39.4321 77.4159 38.88 77.229 38.4293 76.8835C37.9786 76.5381 37.6545 76.0535 37.5075 75.505C37.3604 74.9565 37.3985 74.3748 37.6159 73.8502C37.8334 73.3256 38.2179 72.8875 38.7098 72.6038V73.5448C38.7098 73.887 38.8458 74.2152 39.0877 74.4571C39.3297 74.6991 39.6578 74.835 40 74.835C40.3422 74.835 40.6703 74.6991 40.9123 74.4571C41.1542 74.2152 41.2902 73.887 41.2902 73.5448V72.6038C41.7821 72.8875 42.1666 73.3256 42.3841 73.8502C42.6015 74.3748 42.6396 74.9565 42.4925 75.505C42.3455 76.0535 42.0214 76.5381 41.5707 76.8835C41.12 77.229 40.5679 77.4159 40 77.4154ZM44.0385 71.6276C43.3408 70.7486 42.3762 70.1204 41.2902 69.8376V60.643C41.2902 60.3008 41.1542 59.9726 40.9123 59.7307C40.6703 59.4887 40.3422 59.3528 40 59.3528C39.6578 59.3528 39.3297 59.4887 39.0877 59.7307C38.8458 59.9726 38.7098 60.3008 38.7098 60.643V69.8376C37.6238 70.1204 36.6591 70.7487 35.9615 71.6278L10.255 60.2035C10.3753 59.4883 10.3431 58.7558 10.1605 58.0539L21.2741 51.8796C21.4238 51.7981 21.5558 51.6878 21.6625 51.5551C21.7693 51.4223 21.8488 51.2698 21.8963 51.1062C21.9438 50.9425 21.9584 50.7712 21.9393 50.6019C21.9202 50.4326 21.8678 50.2687 21.7851 50.1198C21.7024 49.9709 21.5909 49.8398 21.4573 49.7342C21.3236 49.6285 21.1704 49.5504 21.0064 49.5043C20.8424 49.4582 20.6709 49.4451 20.5018 49.4656C20.3326 49.4861 20.1693 49.54 20.0211 49.624L8.90358 55.8007C8.23903 55.0994 7.39094 54.5986 6.45582 54.3554V25.6446C7.26243 25.4355 8.00632 25.0339 8.62378 24.4744L20.0211 30.8063C20.1693 30.8903 20.3326 30.9441 20.5018 30.9647C20.6709 30.9852 20.8424 30.9721 21.0064 30.926C21.1704 30.8799 21.3236 30.8017 21.4573 30.6961C21.5909 30.5905 21.7024 30.4594 21.7851 30.3105C21.8678 30.1615 21.9202 29.9977 21.9393 29.8284C21.9584 29.6591 21.9438 29.4877 21.8963 29.3241C21.8488 29.1605 21.7693 29.0079 21.6625 28.8752C21.5558 28.7425 21.4238 28.6322 21.2741 28.5507L10.0484 22.3141C10.3261 21.5053 10.3971 20.6399 10.255 19.7967L35.9615 8.37238C36.6592 9.25139 37.6238 9.87965 38.7098 10.1624V27.0981C38.7098 27.4403 38.8458 27.7685 39.0877 28.0104C39.3297 28.2524 39.6578 28.3883 40 28.3883C40.3422 28.3883 40.6703 28.2524 40.9123 28.0104C41.1542 27.7685 41.2902 27.4403 41.2902 27.0981V10.1624C42.3762 9.87961 43.3409 9.25129 44.0385 8.37222L69.745 19.7965C69.6029 20.6398 69.6739 21.5052 69.9516 22.314L58.7259 28.5506C58.5762 28.632 58.4442 28.7423 58.3375 28.875C58.2307 29.0078 58.1512 29.1604 58.1037 29.324C58.0562 29.4876 58.0416 29.659 58.0607 29.8283C58.0798 29.9975 58.1322 30.1614 58.2149 30.3103C58.2976 30.4592 58.4091 30.5903 58.5427 30.6959C58.6764 30.8016 58.8296 30.8797 58.9936 30.9258C59.1576 30.9719 59.3291 30.985 59.4982 30.9645C59.6674 30.944 59.8307 30.8901 59.9789 30.8061L71.3762 24.4742C71.9937 25.0338 72.7376 25.4354 73.5442 25.6446V54.3554C72.6091 54.5984 71.761 55.099 71.0964 55.8003L59.9789 49.6235C59.6801 49.4608 59.3291 49.4228 59.0023 49.5177C58.6756 49.6125 58.3995 49.8327 58.2343 50.1301C58.0691 50.4275 58.028 50.7782 58.1201 51.1058C58.2121 51.4333 58.4299 51.7113 58.7259 51.8791L69.8395 58.0534C69.6569 58.7553 69.6247 59.4878 69.745 60.203L44.0385 71.6276ZM74.8343 61.9332C74.158 61.9322 73.509 61.6659 73.0269 61.1916C72.5449 60.7172 72.2681 60.0726 72.2563 59.3963L74.2076 60.4806C74.3559 60.5646 74.5192 60.6184 74.6883 60.639C74.8575 60.6595 75.029 60.6463 75.193 60.6002C75.357 60.5541 75.5102 60.476 75.6439 60.3704C75.7775 60.2647 75.8889 60.1337 75.9717 59.9847C76.0544 59.8358 76.1068 59.672 76.1259 59.5027C76.145 59.3334 76.1304 59.162 76.0829 58.9984C76.0353 58.8348 75.9559 58.6822 75.8491 58.5495C75.7423 58.4167 75.6103 58.3065 75.4607 58.225L73.5108 57.1417C73.8517 56.9376 74.2352 56.8149 74.6313 56.7834C75.0274 56.7519 75.4255 56.8124 75.7944 56.9601C76.1633 57.1078 76.493 57.3388 76.7579 57.635C77.0229 57.9311 77.2157 58.2845 77.3215 58.6676C77.4274 59.0506 77.4432 59.4529 77.3679 59.8431C77.2926 60.2332 77.1281 60.6007 76.8873 60.9169C76.6466 61.233 76.336 61.4892 75.9799 61.6655C75.6237 61.8418 75.2317 61.9334 74.8343 61.9332Z" fill="#288FFF"/>
<path d="M40 54C39.7348 54 39.4804 54.1405 39.2929 54.3905C39.1054 54.6406 39 54.9797 39 55.3333V56.6667C39 57.0203 39.1054 57.3594 39.2929 57.6095C39.4804 57.8595 39.7348 58 40 58C40.2652 58 40.5196 57.8595 40.7071 57.6095C40.8946 57.3594 41 57.0203 41 56.6667V55.3333C41 54.9797 40.8946 54.6406 40.7071 54.3905C40.5196 54.1405 40.2652 54 40 54Z" fill="#288FFF"/>
<path fill-rule="evenodd" clip-rule="evenodd" d="M24 31.3143C24 30.5884 24.5908 30 25.3196 30H54.6804C55.4092 30 56 30.5884 56 31.3143V51.6857C56 52.4116 55.4092 53 54.6804 53H25.3196C24.5908 53 24 52.4116 24 51.6857V46.1821C24 45.4563 24.5908 44.8679 25.3196 44.8679C26.0484 44.8679 26.6392 45.4563 26.6392 46.1821V50.3714H53.3608V32.6286H26.6392V37.8857C26.6392 38.6116 26.0484 39.2 25.3196 39.2C24.5908 39.2 24 38.6116 24 37.8857V31.3143Z" fill="#288FFF"/>
<path d="M36 36C36 36.5523 35.3284 37 34.5 37C33.6716 37 33 36.5523 33 36C33 35.4477 33.6716 35 34.5 35C35.3284 35 36 35.4477 36 36Z" fill="#288FFF"/>
<path d="M36 40.5C36 41.3284 35.3284 42 34.5 42C33.6716 42 33 41.3284 33 40.5C33 39.6716 33.6716 39 34.5 39C35.3284 39 36 39.6716 36 40.5Z" fill="#288FFF"/>
<path d="M36 44C36 44.5523 35.3284 45 34.5 45C33.6716 45 33 44.5523 33 44C33 43.4477 33.6716 43 34.5 43C35.3284 43 36 43.4477 36 44Z" fill="#288FFF"/>
<path d="M36 47.5C36 48.3284 35.3284 49 34.5 49C33.6716 49 33 48.3284 33 47.5C33 46.6716 33.6716 46 34.5 46C35.3284 46 36 46.6716 36 47.5Z" fill="#288FFF"/>
<path fill-rule="evenodd" clip-rule="evenodd" d="M24 38.3333C24 37.597 24.6115 37 25.3659 37C28.4775 37 31 39.4624 31 42.5C31 45.5376 28.4775 48 25.3659 48C24.6115 48 24 47.403 24 46.6667C24 45.9303 24.6115 45.3333 25.3659 45.3333C26.9688 45.3333 28.2683 44.0648 28.2683 42.5C28.2683 40.9352 26.9688 39.6667 25.3659 39.6667C24.6115 39.6667 24 39.0697 24 38.3333Z" fill="#288FFF"/>
</svg>
