<svg width="78" height="60" viewBox="0 0 78 60" fill="none" xmlns="http://www.w3.org/2000/svg">
<path d="M5 43.75H10C10.3315 43.75 10.6495 43.6183 10.8839 43.3839C11.1183 43.1495 11.25 42.8315 11.25 42.5C11.25 42.1685 11.1183 41.8505 10.8839 41.6161C10.6495 41.3817 10.3315 41.25 10 41.25H5C4.66848 41.25 4.35054 41.3817 4.11612 41.6161C3.8817 41.8505 3.75 42.1685 3.75 42.5C3.75 42.8315 3.8817 43.1495 4.11612 43.3839C4.35054 43.6183 4.66848 43.75 5 43.75Z" fill="#FE738A"/>
<path d="M13.75 43.75H15C15.3315 43.75 15.6495 43.6183 15.8839 43.3839C16.1183 43.1495 16.25 42.8315 16.25 42.5C16.25 42.1685 16.1183 41.8505 15.8839 41.6161C15.6495 41.3817 15.3315 41.25 15 41.25H13.75C13.4185 41.25 13.1005 41.3817 12.8661 41.6161C12.6317 41.8505 12.5 42.1685 12.5 42.5C12.5 42.8315 12.6317 43.1495 12.8661 43.3839C13.1005 43.6183 13.4185 43.75 13.75 43.75Z" fill="#FE738A"/>
<path d="M58.75 5H18.75C18.4185 5 18.1005 5.1317 17.8661 5.36612C17.6317 5.60054 17.5 5.91848 17.5 6.25V33.75C17.5 34.0815 17.6317 34.3995 17.8661 34.6339C18.1005 34.8683 18.4185 35 18.75 35H58.75C59.0815 35 59.3995 34.8683 59.6339 34.6339C59.8683 34.3995 60 34.0815 60 33.75V6.25C60 5.91848 59.8683 5.60054 59.6339 5.36612C59.3995 5.1317 59.0815 5 58.75 5ZM20 7.5H57.5V12.5H20V7.5ZM57.5 32.5H20V15H57.5V32.5Z" fill="#FE738A"/>
<path d="M22.5 11.25C23.1904 11.25 23.75 10.6904 23.75 10C23.75 9.30964 23.1904 8.75 22.5 8.75C21.8096 8.75 21.25 9.30964 21.25 10C21.25 10.6904 21.8096 11.25 22.5 11.25Z" fill="#FE738A"/>
<path d="M26.25 11.25C26.9404 11.25 27.5 10.6904 27.5 10C27.5 9.30964 26.9404 8.75 26.25 8.75C25.5596 8.75 25 9.30964 25 10C25 10.6904 25.5596 11.25 26.25 11.25Z" fill="#FE738A"/>
<path d="M30 11.25C30.6904 11.25 31.25 10.6904 31.25 10C31.25 9.30964 30.6904 8.75 30 8.75C29.3096 8.75 28.75 9.30964 28.75 10C28.75 10.6904 29.3096 11.25 30 11.25Z" fill="#FE738A"/>
<path d="M26.25 20H51.25C51.5815 20 51.8995 19.8683 52.1339 19.6339C52.3683 19.3995 52.5 19.0815 52.5 18.75C52.5 18.4185 52.3683 18.1005 52.1339 17.8661C51.8995 17.6317 51.5815 17.5 51.25 17.5H26.25C25.9185 17.5 25.6005 17.6317 25.3661 17.8661C25.1317 18.1005 25 18.4185 25 18.75C25 19.0815 25.1317 19.3995 25.3661 19.6339C25.6005 19.8683 25.9185 20 26.25 20Z" fill="#FE738A"/>
<path d="M26.25 25H51.25C51.5815 25 51.8995 24.8683 52.1339 24.6339C52.3683 24.3995 52.5 24.0815 52.5 23.75C52.5 23.4185 52.3683 23.1005 52.1339 22.8661C51.8995 22.6317 51.5815 22.5 51.25 22.5H26.25C25.9185 22.5 25.6005 22.6317 25.3661 22.8661C25.1317 23.1005 25 23.4185 25 23.75C25 24.0815 25.1317 24.3995 25.3661 24.6339C25.6005 24.8683 25.9185 25 26.25 25Z" fill="#FE738A"/>
<path d="M26.25 30H41.25C41.5815 30 41.8995 29.8683 42.1339 29.6339C42.3683 29.3995 42.5 29.0815 42.5 28.75C42.5 28.4185 42.3683 28.1005 42.1339 27.8661C41.8995 27.6317 41.5815 27.5 41.25 27.5H26.25C25.9185 27.5 25.6005 27.6317 25.3661 27.8661C25.1317 28.1005 25 28.4185 25 28.75C25 29.0815 25.1317 29.3995 25.3661 29.6339C25.6005 29.8683 25.9185 30 26.25 30Z" fill="#FE738A"/>
<path d="M71.25 0H6.25C4.59297 0.00186102 3.00434 0.660939 1.83264 1.83264C0.660939 3.00434 0.00186102 4.59297 0 6.25V41.25C0.00186102 42.907 0.660939 44.4957 1.83264 45.6674C3.00434 46.8391 4.59297 47.4981 6.25 47.5H29.6375L27.8666 52.5H23.75C23.4185 52.5 23.1005 52.6317 22.8661 52.8661C22.6317 53.1005 22.5 53.4185 22.5 53.75V58.75C22.5 59.0815 22.6317 59.3995 22.8661 59.6339C23.1005 59.8683 23.4185 60 23.75 60H53.75C54.0815 60 54.3995 59.8683 54.6339 59.6339C54.8683 59.3995 55 59.0815 55 58.75V53.75C55 53.4185 54.8683 53.1005 54.6339 52.8661C54.3995 52.6317 54.0815 52.5 53.75 52.5H49.7897L48.0188 47.5H71.25C72.907 47.4981 74.4957 46.8391 75.6674 45.6674C76.8391 44.4957 77.4981 42.907 77.5 41.25V6.25C77.4981 4.59297 76.8391 3.00434 75.6674 1.83264C74.4957 0.660939 72.907 0.00186102 71.25 0ZM2.5 6.25C2.50112 5.25578 2.89656 4.3026 3.59958 3.59958C4.3026 2.89656 5.25578 2.50112 6.25 2.5H71.25C72.2442 2.50112 73.1974 2.89656 73.9004 3.59958C74.6034 4.3026 74.9989 5.25578 75 6.25V37.5H2.5V6.25ZM52.5 57.5H25V55H52.5V57.5ZM47.1375 52.5H30.5188L32.2897 47.5H45.3666L47.1375 52.5ZM75 41.25C74.9989 42.2442 74.6034 43.1974 73.9004 43.9004C73.1974 44.6034 72.2442 44.9989 71.25 45H6.25C5.25578 44.9989 4.3026 44.6034 3.59958 43.9004C2.89656 43.1974 2.50112 42.2442 2.5 41.25V40H75V41.25Z" fill="#FE738A"/>
</svg>
