<svg width="89" height="62" viewBox="0 0 89 62" fill="none" xmlns="http://www.w3.org/2000/svg">
<path d="M84.6935 0H4.30645C3.16431 0 2.06895 0.453714 1.26133 1.26133C0.453714 2.06895 0 3.16431 0 4.30645V47.371C0 48.5131 0.453714 49.6085 1.26133 50.4161C2.06895 51.2237 3.16431 51.6774 4.30645 51.6774H34.0497L33.3319 54.5484H28.7097C28.329 54.5484 27.9638 54.6996 27.6946 54.9688C27.4254 55.238 27.2742 55.6032 27.2742 55.9839V60.2903C27.2742 60.671 27.4254 61.0362 27.6946 61.3054C27.9638 61.5746 28.329 61.7258 28.7097 61.7258H60.2903C60.671 61.7258 61.0362 61.5746 61.3054 61.3054C61.5746 61.0362 61.7258 60.671 61.7258 60.2903V55.9839C61.7258 55.6032 61.5746 55.238 61.3054 54.9688C61.0362 54.6996 60.671 54.5484 60.2903 54.5484H55.6681L54.9503 51.6774H84.6935C85.8357 51.6774 86.931 51.2237 87.7387 50.4161C88.5463 49.6085 89 48.5131 89 47.371V4.30645C89 3.16431 88.5463 2.06895 87.7387 1.26133C86.931 0.453714 85.8357 0 84.6935 0ZM2.87097 4.30645C2.87097 3.92574 3.02221 3.56062 3.29141 3.29141C3.56062 3.02221 3.92574 2.87097 4.30645 2.87097H84.6935C85.0743 2.87097 85.4394 3.02221 85.7086 3.29141C85.9778 3.56062 86.129 3.92574 86.129 4.30645V40.1936H2.87097V4.30645ZM58.8548 58.8548H30.1452V57.4194H58.8548V58.8548ZM52.7095 54.5484H36.2905L37.0082 51.6774H51.9918L52.7095 54.5484ZM86.129 47.371C86.129 47.7517 85.9778 48.1168 85.7086 48.386C85.4394 48.6552 85.0743 48.8065 84.6935 48.8065H4.30645C3.92574 48.8065 3.56062 48.6552 3.29141 48.386C3.02221 48.1168 2.87097 47.7517 2.87097 47.371V43.0645H86.129V47.371Z" fill="#10B3B8"/>
<path d="M7.17572 47.371H12.9177C13.2984 47.371 13.6635 47.2197 13.9327 46.9505C14.2019 46.6813 14.3531 46.3162 14.3531 45.9355C14.3531 45.5548 14.2019 45.1896 13.9327 44.9204C13.6635 44.6512 13.2984 44.5 12.9177 44.5H7.17572C6.795 44.5 6.42988 44.6512 6.16068 44.9204C5.89147 45.1896 5.74023 45.5548 5.74023 45.9355C5.74023 46.3162 5.89147 46.6813 6.16068 46.9505C6.42988 47.2197 6.795 47.371 7.17572 47.371Z" fill="#10B3B8"/>
<path d="M17.2245 47.371H18.66C19.0407 47.371 19.4059 47.2197 19.6751 46.9505C19.9443 46.6813 20.0955 46.3162 20.0955 45.9355C20.0955 45.5548 19.9443 45.1896 19.6751 44.9204C19.4059 44.6512 19.0407 44.5 18.66 44.5H17.2245C16.8438 44.5 16.4787 44.6512 16.2095 44.9204C15.9403 45.1896 15.7891 45.5548 15.7891 45.9355C15.7891 46.3162 15.9403 46.6813 16.2095 46.9505C16.4787 47.2197 16.8438 47.371 17.2245 47.371Z" fill="#10B3B8"/>
<path d="M56.8454 16.0771C56.6946 15.964 56.523 15.8817 56.3404 15.835C56.1578 15.7882 55.9677 15.7778 55.7811 15.8045C55.5945 15.8311 55.415 15.8943 55.2528 15.9903C55.0905 16.0864 54.9488 16.2134 54.8357 16.3642L50.5293 22.1062C50.3429 22.3546 50.2422 22.6569 50.2422 22.9675C50.2422 23.2781 50.3429 23.5803 50.5293 23.8288L54.8357 29.5707C54.9488 29.7215 55.0905 29.8485 55.2528 29.9446C55.415 30.0406 55.5945 30.1038 55.7811 30.1305C55.9677 30.1571 56.1578 30.1468 56.3404 30.1C56.523 30.0532 56.6946 29.9709 56.8454 29.8578C56.9962 29.7447 57.1233 29.603 57.2193 29.4408C57.3154 29.2786 57.3785 29.099 57.4052 28.9124C57.4318 28.7258 57.4215 28.5357 57.3747 28.3531C57.3279 28.1705 57.2456 27.9989 57.1325 27.8481L53.472 22.9675L57.1325 18.0868C57.3609 17.7822 57.459 17.3994 57.4052 17.0225C57.3513 16.6456 57.15 16.3056 56.8454 16.0771Z" fill="#10B3B8"/>
<path d="M71.4862 16.3642C71.2578 16.0597 70.9177 15.8583 70.5408 15.8045C70.164 15.7506 69.7811 15.8487 69.4765 16.0771C69.172 16.3056 68.9706 16.6456 68.9168 17.0225C68.8629 17.3994 68.961 17.7822 69.1894 18.0868L72.8499 22.9675L69.1894 27.8481C68.961 28.1527 68.8629 28.5355 68.9168 28.9124C68.9706 29.2893 69.172 29.6294 69.4765 29.8578C69.7811 30.0862 70.164 30.1843 70.5408 30.1305C70.9177 30.0766 71.2578 29.8753 71.4862 29.5707L75.7927 23.8288C75.979 23.5803 76.0798 23.2781 76.0798 22.9675C76.0798 22.6569 75.979 22.3547 75.7927 22.1062L71.4862 16.3642Z" fill="#10B3B8"/>
<path d="M66.6732 15.9406C66.5045 15.8562 66.3208 15.806 66.1327 15.7926C65.9445 15.7793 65.7556 15.8032 65.5767 15.8629C65.3978 15.9227 65.2324 16.0171 65.09 16.1407C64.9476 16.2644 64.831 16.4149 64.7468 16.5837L59.0048 28.0676C58.8347 28.4083 58.8068 28.8027 58.9274 29.164C59.048 29.5252 59.3072 29.8238 59.6479 29.994C59.9887 30.1642 60.3831 30.192 60.7443 30.0714C61.1056 29.9508 61.4042 29.6916 61.5744 29.3509L67.3163 17.867C67.4006 17.6983 67.4509 17.5146 67.4642 17.3265C67.4776 17.1384 67.4537 16.9494 67.394 16.7705C67.3342 16.5916 67.2398 16.4262 67.1162 16.2838C66.9925 16.1414 66.842 16.0248 66.6732 15.9406Z" fill="#10B3B8"/>
<path d="M19.6785 23.3991L17.8756 28.9459C17.68 29.5495 17.8956 30.2112 18.4092 30.5836C18.9235 30.9566 19.6191 30.9566 20.1334 30.5836L24.8524 27.1564L29.5715 30.5836C30.0858 30.9566 30.7814 30.9566 31.2957 30.5836C31.8093 30.2112 32.0249 29.5495 31.8293 28.9459L30.0264 23.3991L34.7447 19.9719C35.2583 19.5981 35.4739 18.9364 35.2777 18.3321C35.0807 17.7277 34.5176 17.3188 33.8816 17.3188H28.0508L26.2478 11.7756C26.0494 11.1733 25.4878 10.7666 24.8539 10.7666C24.2199 10.7666 23.6584 11.1733 23.4599 11.7756L21.6541 17.3188H15.8233C15.1872 17.3188 14.6242 17.7277 14.4272 18.3321C14.231 18.9364 14.4466 19.5981 14.9602 19.9719L19.6785 23.3991ZM22.7207 20.2519C23.3561 20.2519 23.9198 19.843 24.1161 19.2386L24.8496 16.9729L25.5831 19.2386C25.7794 19.843 26.3424 20.2519 26.9785 20.2519H29.3623L27.434 21.6525C26.9204 22.0256 26.7048 22.6866 26.9004 23.2902L27.6339 25.5581L25.7063 24.1574C25.192 23.7836 24.495 23.7836 23.9807 24.1574L22.0531 25.5581L22.7866 23.2902C22.9822 22.6866 22.7665 22.0256 22.2529 21.6525L20.3368 20.2519H22.7207Z" fill="#10B3B8"/>
</svg>
