<svg width="168" height="27" viewBox="0 0 168 27" fill="none" xmlns="http://www.w3.org/2000/svg">
<path d="M59.6938 26.068V21.318H47.1538V15.58H59.4278V10.83H47.1538V5.472H59.6938V0.721999H41.7578V26.068H59.6938Z" fill="white"/>
<path d="M76.1861 26.562C80.7841 26.562 84.3941 24.662 86.9781 21.774V12.046H74.8941V16.758H81.5821V19.798C80.5561 20.748 78.4281 21.736 76.1861 21.736C71.5881 21.736 68.2441 18.202 68.2441 13.414C68.2441 8.626 71.5881 5.092 76.1861 5.092C78.8841 5.092 81.0501 6.612 82.1901 8.398L86.6741 5.966C84.7741 2.964 81.4681 0.304001 76.1861 0.304001C68.7761 0.304001 62.6961 5.396 62.6961 13.414C62.6961 21.394 68.7761 26.562 76.1861 26.562Z" fill="white"/>
<path d="M95.9737 26.068V13.946C96.7717 12.768 98.8997 11.856 100.496 11.856C101.028 11.856 101.484 11.894 101.826 11.97V7.258C99.5457 7.258 97.2657 8.588 95.9737 10.222V7.714H91.1477V26.068H95.9737Z" fill="white"/>
<path d="M120.687 26.068V14.212C120.687 8.93 116.849 7.258 112.669 7.258C109.781 7.258 106.893 8.17 104.651 10.146L106.475 13.376C108.033 11.932 109.857 11.21 111.833 11.21C114.265 11.21 115.861 12.426 115.861 14.288V16.758C114.645 15.314 112.479 14.516 110.047 14.516C107.121 14.516 103.663 16.15 103.663 20.444C103.663 24.548 107.121 26.524 110.047 26.524C112.441 26.524 114.607 25.65 115.861 24.168V26.068H120.687ZM111.985 23.256C110.085 23.256 108.527 22.268 108.527 20.558C108.527 18.772 110.085 17.784 111.985 17.784C113.543 17.784 115.063 18.316 115.861 19.38V21.66C115.063 22.724 113.543 23.256 111.985 23.256Z" fill="white"/>
<path d="M142.688 26.068V13.11C142.688 9.538 140.75 7.258 136.722 7.258C133.72 7.258 131.478 8.702 130.3 10.108V7.714H125.474V26.068H130.3V13.718C131.098 12.616 132.58 11.552 134.48 11.552C136.532 11.552 137.862 12.426 137.862 14.972V26.068H142.688Z" fill="white"/>
<path d="M149.874 5.738C151.47 5.738 152.762 4.446 152.762 2.85C152.762 1.254 151.47 0 149.874 0C148.316 0 146.986 1.254 146.986 2.85C146.986 4.446 148.316 5.738 149.874 5.738ZM152.306 26.068V7.714H147.48V26.068H152.306Z" fill="white"/>
<path d="M163.247 26.524C165.261 26.524 166.553 25.992 167.275 25.346L166.249 21.698C165.983 21.964 165.299 22.23 164.577 22.23C163.513 22.23 162.905 21.356 162.905 20.216V11.932H166.629V7.714H162.905V2.698H158.041V7.714H155.001V11.932H158.041V21.508C158.041 24.776 159.865 26.524 163.247 26.524Z" fill="white"/>
<path fill-rule="evenodd" clip-rule="evenodd" d="M0 15.8984C0 7.47597 6.82745 0.648048 15.2499 0.647461H25.5V26.0779H0V15.8984ZM15.25 3.14746C15.25 3.14746 15.25 3.14746 15.25 3.14746C8.20822 3.148 2.5 8.85664 2.5 15.8984V23.5779H23V3.14746H15.25Z" fill="white"/>
</svg>
