<svg width="230" height="37" viewBox="0 0 230 37" fill="none" xmlns="http://www.w3.org/2000/svg">
<path d="M4.14803 7.651L4.07202 7.69C3.88502 7.793 3.79003 7.907 3.79803 8.018C3.80403 8.098 3.85603 8.14 3.96003 8.225C3.99498 8.25152 4.03174 8.27557 4.07002 8.297L4.14803 8.34V7.651ZM3.92103 8.714C4.01603 8.587 3.98603 8.504 3.96003 8.467C3.91303 8.399 3.85703 8.35 3.80703 8.305L3.77303 8.273L3.75003 8.276C3.62303 8.291 3.51403 8.384 3.44403 8.461L3.39703 8.511L3.89603 8.749L3.92103 8.714ZM3.62703 8.123C3.59903 7.594 4.26003 7.463 4.26003 7.463V8.276C4.26003 8.544 4.07002 8.811 3.99203 8.876L3.93303 8.929L3.18003 8.572L3.24603 8.461C3.25403 8.448 3.39903 8.212 3.62703 8.123ZM6.43802 5.769C6.47807 5.70138 6.50324 5.626 6.51186 5.54789C6.52048 5.46978 6.51236 5.39073 6.48803 5.316C6.46303 5.251 6.41003 5.226 6.30303 5.182C6.25427 5.16207 6.20654 5.1397 6.16003 5.115L6.09602 5.081L6.08603 5.154C6.06603 5.274 6.05603 5.439 6.11503 5.536C6.14703 5.589 6.19203 5.627 6.23903 5.67C6.27503 5.7 6.31503 5.737 6.35403 5.78L6.40203 5.835L6.43802 5.769ZM6.23903 6.403C6.35703 6.245 6.38403 6.09 6.31703 5.959C6.27303 5.874 6.21403 5.823 6.15203 5.769L6.09903 5.724L6.06703 5.764C6.00303 5.84 5.87102 6.039 6.00602 6.258C6.02902 6.293 6.06303 6.322 6.09903 6.353C6.11903 6.369 6.14103 6.387 6.16103 6.409L6.20503 6.449L6.23903 6.403ZM5.95003 7.028C6.10003 6.973 6.20503 6.838 6.19203 6.716C6.17803 6.596 6.07702 6.521 5.99503 6.46L5.88003 6.375V7.053L5.95003 7.028ZM5.85502 4.512C5.87147 4.64624 5.93279 4.77098 6.02903 4.866C6.14903 4.972 6.26202 5.02 6.34602 5.056L6.40603 5.081L6.41603 5.015C6.43603 4.859 6.43503 4.655 6.31103 4.555C6.18303 4.455 6.08402 4.454 5.96903 4.452H5.90903L5.84602 4.451L5.85603 4.512H5.85502ZM5.64603 4.213C5.76203 4.32 5.85803 4.32 5.97003 4.321C6.01003 4.321 6.05303 4.323 6.10003 4.326L6.17803 4.336L6.15403 4.26C6.12303 4.166 6.06803 4.04 5.99202 3.98C5.87684 3.88817 5.73831 3.83033 5.59203 3.813C5.56305 3.80816 5.53434 3.80182 5.50602 3.794L5.42003 3.776L5.44702 3.859C5.49302 4.019 5.56003 4.138 5.64503 4.213H5.64603ZM5.11903 3.117C5.13703 3.313 5.18903 3.45 5.27103 3.526C5.36669 3.61352 5.48803 3.66788 5.61702 3.681C5.65002 3.688 5.68603 3.694 5.72503 3.703L5.81203 3.725L5.78503 3.638C5.75502 3.532 5.70103 3.39 5.63503 3.322C5.56666 3.25739 5.48608 3.20708 5.39803 3.174C5.34802 3.15 5.27603 3.117 5.19803 3.069L5.11103 3.014L5.11903 3.117ZM4.95902 2.439C4.97102 2.622 5.01803 2.752 5.09503 2.824C5.23803 2.954 5.35203 3.006 5.44502 3.048L5.52903 3.088L5.51603 2.995C5.50627 2.90384 5.48441 2.81439 5.45103 2.729C5.38403 2.57 5.28303 2.522 5.16703 2.465C5.12292 2.44313 5.07956 2.41979 5.03702 2.395L4.95202 2.337L4.95902 2.439ZM4.92403 1.972C4.97302 2.22 5.09102 2.279 5.22603 2.345C5.25203 2.359 5.28003 2.371 5.30802 2.388L5.38602 2.431L5.38403 2.341C5.38392 2.30722 5.38158 2.27348 5.37703 2.24C5.32403 1.88 5.15403 1.771 5.01903 1.687L4.95902 1.645L4.94103 1.715C4.91596 1.79827 4.91015 1.88615 4.92403 1.972ZM4.95703 1.307C4.91503 1.46 4.97103 1.497 5.09203 1.572C5.15403 1.612 5.23103 1.662 5.29903 1.736L5.37003 1.815L5.38703 1.711C5.42003 1.519 5.41103 1.352 5.35903 1.253C5.34968 1.23155 5.33596 1.21228 5.31874 1.19644C5.30152 1.1806 5.28118 1.16852 5.25903 1.161C5.22584 1.1498 5.19105 1.14406 5.15603 1.144C5.1225 1.14252 5.08924 1.15049 5.06003 1.167C5.0344 1.1823 5.01208 1.20256 4.99439 1.2266C4.97671 1.25064 4.964 1.27798 4.95703 1.307ZM6.52203 5.982C6.59203 6.242 6.42702 6.472 6.33402 6.578C6.41202 7.072 5.76203 7.288 5.76203 7.288V6.065C5.76585 5.89796 5.83223 5.73844 5.94803 5.618C5.84603 5.431 5.89103 5.151 5.92203 5.015L5.90702 5.003C5.75621 4.85705 5.66861 4.6578 5.66303 4.448C5.61203 4.42139 5.56436 4.38883 5.52103 4.351C5.31803 4.169 5.24603 3.851 5.22403 3.725C5.1962 3.70558 5.1698 3.68419 5.14503 3.661C4.92503 3.461 4.92103 3.065 4.92903 2.915C4.71803 2.665 4.77403 2.212 4.78103 2.158L4.78803 2.16C4.76828 2.11052 4.75321 2.05929 4.74303 2.007C4.7198 1.85265 4.73952 1.69488 4.80003 1.551C4.76003 1.481 4.74303 1.391 4.77703 1.26C4.79041 1.20684 4.81429 1.15689 4.84726 1.1131C4.88023 1.06931 4.92163 1.03255 4.96903 1.005C5.02202 0.977985 5.08004 0.962259 5.13943 0.958817C5.19881 0.955374 5.25826 0.96429 5.31403 0.985C5.35952 1.00014 5.40153 1.02422 5.43759 1.05581C5.47365 1.08741 5.50304 1.12589 5.52403 1.169C5.63803 1.389 5.59303 1.737 5.50903 1.995C5.53003 2.058 5.54803 2.131 5.56003 2.214C5.58003 2.348 5.56803 2.471 5.55703 2.541C5.5827 2.57764 5.60448 2.61685 5.62203 2.658C5.69403 2.826 5.71203 3.043 5.71803 3.15C5.73403 3.165 5.75102 3.177 5.76802 3.194C5.90802 3.336 5.98403 3.643 6.01102 3.769C6.04303 3.789 6.07403 3.811 6.10703 3.837C6.27703 3.97 6.35103 4.255 6.37703 4.377C6.39302 4.387 6.41003 4.398 6.42602 4.411C6.66502 4.601 6.62003 4.971 6.58603 5.135C6.61603 5.165 6.64202 5.202 6.66003 5.249C6.78503 5.572 6.60903 5.865 6.52203 5.982ZM7.72603 3.604C7.87503 3.621 7.98603 3.747 7.98603 3.895V4.122C7.98597 4.19386 7.95941 4.26318 7.91144 4.31668C7.86347 4.37019 7.79745 4.40412 7.72603 4.412L6.72603 4.558C6.69186 4.46298 6.63485 4.37781 6.56003 4.31L6.50602 4.199C6.45602 4.033 6.36703 3.829 6.21203 3.706C6.20603 3.7 6.19803 3.696 6.19203 3.692C6.17886 3.67123 6.16552 3.65056 6.15203 3.63C6.1286 3.53981 6.09921 3.45128 6.06403 3.365L7.72603 3.604ZM9.85003 6.344C9.86428 6.33721 9.88003 6.33416 9.89579 6.33513C9.91156 6.33611 9.92681 6.34109 9.94011 6.34959C9.95342 6.3581 9.96434 6.36985 9.97185 6.38374C9.97936 6.39763 9.9832 6.41321 9.98303 6.429C9.96803 7.287 9.82003 8.027 9.53603 8.61C9.50803 8.667 9.42603 8.669 9.39303 8.615L9.08003 8.106C8.15903 9.211 6.52203 10.79 4.99202 11.279C3.46102 10.79 1.82403 9.211 0.902025 8.106L0.591026 8.615C0.556026 8.669 0.476025 8.667 0.448025 8.61C0.162025 8.027 0.0140254 7.287 2.54355e-05 6.429C-0.000345093 6.41324 0.00333798 6.39766 0.0107214 6.38373C0.0181048 6.36981 0.028941 6.35802 0.0421912 6.34949C0.0554414 6.34095 0.0706612 6.33597 0.0863916 6.33501C0.102122 6.33405 0.117835 6.33714 0.132025 6.344L1.87603 7.209C1.92903 7.233 1.93203 7.307 1.88203 7.339L1.49203 7.589C1.84903 7.889 2.29403 8.228 2.72703 8.476C3.71903 9.046 4.29503 9.302 4.37703 8.986V4.717L2.25703 4.414C2.18524 4.4057 2.11897 4.37143 2.0707 4.31764C2.02244 4.26385 1.99552 4.19426 1.99503 4.122V3.896C1.99503 3.746 2.10703 3.62 2.25703 3.604L4.37703 3.298V2.507C4.15997 2.39517 3.97777 2.2259 3.85029 2.01766C3.7228 1.80941 3.65491 1.57017 3.65403 1.326C3.65403 0.596 4.25202 0 4.99202 0C5.73002 0 6.32803 0.595 6.32803 1.326C6.32803 1.784 6.09303 2.186 5.73803 2.423C5.74577 2.27832 5.72782 2.13342 5.68503 1.995C5.73803 1.813 5.82903 1.392 5.67403 1.095C5.65043 1.04872 5.62047 1.00598 5.58503 0.968C5.5224 0.867037 5.4351 0.783677 5.33135 0.72577C5.22761 0.667862 5.11084 0.637313 4.99202 0.637C4.90098 0.636341 4.81071 0.653655 4.72637 0.687949C4.64203 0.722242 4.56528 0.772842 4.50053 0.836848C4.43578 0.900854 4.3843 0.977008 4.34904 1.06095C4.31377 1.14488 4.29542 1.23496 4.29503 1.326C4.29503 1.549 4.40102 1.746 4.56502 1.872C4.56502 1.926 4.56503 1.981 4.57803 2.037C4.58557 2.08026 4.59695 2.12276 4.61203 2.164C4.59703 2.291 4.57702 2.652 4.73502 2.924C4.74302 2.964 4.75203 3.002 4.76203 3.039C4.76603 3.253 4.81403 3.581 5.02903 3.782C5.04903 3.819 5.06903 3.86 5.08903 3.894C5.13602 4.076 5.22803 4.314 5.40903 4.474C5.43903 4.502 5.46903 4.524 5.50103 4.544L5.50402 4.549C5.51702 4.642 5.54403 4.762 5.60403 4.878V8.986C5.68603 9.302 6.26402 9.046 7.25602 8.476C7.69143 8.21524 8.1045 7.9189 8.49103 7.59L8.10003 7.34C8.05003 7.307 8.05503 7.233 8.10603 7.209L9.85003 6.344ZM47.917 13.456C51.627 13.456 52.012 11.47 52.042 8.942C52.012 6.417 51.627 4.43 47.917 4.43H45.8V13.456H47.917ZM56.557 8.942V8.967C56.539 12.36 54.737 15.103 47.917 15.103H45.8V19.733H41.174V4.43H39.061V2.782H47.917C54.737 2.782 56.539 5.524 56.557 8.919V8.942ZM71.683 18.676C76.145 18.676 76.389 15.356 76.389 11.257C76.389 7.161 76.145 3.842 71.683 3.842C67.222 3.842 66.978 7.162 66.978 11.257C66.978 15.355 67.222 18.676 71.683 18.676ZM71.683 2.294C79.217 2.294 81.183 6.307 81.183 11.257C81.183 16.207 79.217 20.224 71.683 20.224C64.149 20.224 62.183 16.208 62.183 11.257C62.183 6.307 64.149 2.294 71.683 2.294ZM137.129 2.782V19.748H113.039V2.782H117.663V18.086H122.771V2.782H127.396V18.086H132.504V2.782H137.129ZM192.527 18.085H200.912L197.17 4.429H196.267L192.527 18.085ZM210.571 18.085L210.574 21.622C210.574 24.353 208.744 26.876 204.716 26.876C200.368 26.876 198.813 23.509 196.339 23.509C194.182 23.509 193.516 26.239 193.516 26.239H192.506C192.506 26.239 193.128 21.151 197.148 20.899C201.762 20.607 203.849 23.968 207.111 23.709C208.468 23.601 209.264 22.678 209.264 20.899V19.735H189.224L187.44 26.239H186.481V18.085H190.873L194.617 4.429H192.084V2.782H201.934L206.128 18.085H210.571ZM161.471 10.935H160.511L158.729 4.43H154.927V19.734H150.302V4.43H146.497L144.715 10.936H143.756V2.782H161.471V10.935ZM36.094 18.89C36.094 18.89 33.726 20.368 31.199 20.368C26.253 20.368 26.029 11.781 23.486 11.781H22.428V19.735H17.805V2.78H22.428V10.902L29.205 2.78H31.628L24.826 10.934H26.559C30.767 10.934 31.027 18.701 33.9 18.701C34.677 18.701 35.721 18.149 35.721 18.149L36.094 18.89ZM105.134 2.783V19.735H100.508V12.084H92.549V19.735H87.923V2.782H92.549V10.435H100.508V2.782L105.134 2.783ZM229.676 2.783V10.937H228.716L226.936 4.431H223.131V19.735H218.508V4.43H214.704L212.92 10.936H211.962V2.782L229.676 2.783ZM176.626 13.457L173.659 4.431H172.959L169.851 13.457H176.626ZM177.166 15.104H169.284L167.689 19.734H166.037L171.307 4.431H169.01V2.783H178.33L183.901 19.735H178.689L177.166 15.104ZM118.61 34.877H118.05V35.907H118.591C118.954 35.907 119.249 35.795 119.249 35.377C119.249 35.068 119.081 34.877 118.61 34.877ZM118.576 33.235H118.051V34.165H118.576C118.912 34.165 119.152 34.022 119.152 33.679C119.152 33.325 118.912 33.235 118.576 33.235ZM118.856 32.494C119.631 32.494 120.189 32.764 120.189 33.522C120.192 33.7375 120.119 33.9473 119.984 34.1151C119.849 34.283 119.659 34.3986 119.448 34.442V34.473C120.055 34.561 120.287 34.971 120.287 35.433C120.287 36.407 119.409 36.652 118.817 36.652H117.068V32.494H118.856ZM110.056 33.252C109.228 33.252 109.051 33.965 109.051 34.569C109.051 35.178 109.228 35.89 110.056 35.89C110.88 35.89 111.063 35.178 111.063 34.569C111.063 33.965 110.88 33.252 110.056 33.252ZM110.056 32.438C111.399 32.438 112.072 33.252 112.072 34.568C112.072 35.882 111.399 36.706 110.056 36.706C108.716 36.706 108.044 35.882 108.044 34.569C108.044 33.252 108.715 32.439 110.056 32.439V32.438ZM100.26 33.332V32.494H103.693V33.332H102.472V36.652H101.482V33.332H100.26ZM94.081 33.237H93.595V34.441H94.058C94.361 34.441 94.697 34.26 94.697 33.816C94.697 33.395 94.384 33.237 94.081 33.237ZM94.257 32.493C94.624 32.493 95.702 32.563 95.702 33.808C95.702 34.687 95.054 35.194 94.17 35.194H93.603V36.651H92.611V32.493H94.257ZM85.603 33.253C84.772 33.253 84.596 33.965 84.596 34.569C84.596 35.178 84.771 35.89 85.603 35.89C86.423 35.89 86.608 35.178 86.608 34.569C86.608 33.965 86.423 33.252 85.603 33.252V33.253ZM85.603 32.438C86.943 32.438 87.615 33.252 87.615 34.568C87.615 35.882 86.943 36.706 85.603 36.706C84.26 36.706 83.587 35.882 83.587 34.569C83.587 33.252 84.26 32.439 85.603 32.439V32.438ZM76.946 33.602V35.472C77.538 35.464 77.826 35.114 77.826 34.545C77.826 33.973 77.506 33.609 76.946 33.602ZM75.144 34.545C75.144 35.115 75.428 35.464 76.02 35.472V33.602C75.46 33.609 75.144 33.973 75.144 34.545ZM74.143 34.545C74.143 33.481 74.911 32.895 75.991 32.895V32.381H76.979V32.896C78.075 32.896 78.824 33.481 78.824 34.546C78.824 35.614 78.074 36.176 76.979 36.176V36.716H75.991V36.176C74.887 36.176 74.143 35.614 74.143 34.546V34.545ZM61.339 34.877H60.779V35.907H61.321C61.683 35.907 61.978 35.795 61.978 35.377C61.978 35.068 61.81 34.877 61.339 34.877ZM61.305 33.235H60.78V34.165H61.305C61.641 34.165 61.882 34.022 61.882 33.679C61.882 33.325 61.641 33.235 61.305 33.235ZM61.586 32.494C62.36 32.494 62.918 32.764 62.918 33.522C62.9206 33.7375 62.848 33.9473 62.7128 34.1151C62.5776 34.283 62.3882 34.3986 62.177 34.442V34.473C62.784 34.561 63.016 34.971 63.016 35.433C63.016 36.407 62.138 36.652 61.546 36.652H59.798V32.494H61.586ZM52.787 33.252C51.957 33.252 51.782 33.965 51.782 34.569C51.782 35.178 51.957 35.89 52.787 35.89C53.609 35.89 53.793 35.178 53.793 34.569C53.793 33.965 53.609 33.252 52.787 33.252ZM52.787 32.438C54.128 32.438 54.801 33.252 54.801 34.568C54.801 35.882 54.128 36.706 52.787 36.706C51.446 36.706 50.775 35.882 50.775 34.569C50.775 33.252 51.446 32.439 52.787 32.439V32.438ZM44.42 33.237H43.932V34.441H44.396C44.699 34.441 45.036 34.26 45.036 33.816C45.036 33.395 44.723 33.237 44.42 33.237ZM44.595 32.493C44.964 32.493 46.041 32.563 46.041 33.808C46.041 34.687 45.394 35.194 44.508 35.194H43.941V36.651H42.95V32.493H44.595ZM34.688 33.333V32.493H38.121V33.333H36.9V36.651H35.907V33.332L34.688 33.333ZM28.604 32.436C29.37 32.436 29.777 32.729 30.082 33.07L29.562 33.704C29.323 33.475 29.082 33.277 28.642 33.277C27.931 33.277 27.622 33.886 27.622 34.592C27.622 35.432 28.004 35.874 28.66 35.874C29.09 35.874 29.362 35.684 29.65 35.416L30.128 36.018C29.794 36.406 29.252 36.708 28.604 36.708C27.365 36.708 26.616 36.052 26.616 34.592C26.616 33.286 27.334 32.436 28.604 32.436ZM19.798 33.252C18.968 33.252 18.791 33.965 18.791 34.569C18.791 35.178 18.968 35.89 19.798 35.89C20.62 35.89 20.803 35.178 20.803 34.569C20.803 33.965 20.62 33.252 19.798 33.252ZM19.798 32.438C21.138 32.438 21.81 33.252 21.81 34.568C21.81 35.882 21.139 36.706 19.798 36.706C18.455 36.706 17.785 35.882 17.785 34.569C17.785 33.252 18.455 32.439 19.798 32.439" fill="white"/>
</svg>
