<svg width="192" height="86" viewBox="0 0 192 86" fill="none" xmlns="http://www.w3.org/2000/svg">
<path d="M35.8015 86C34.495 84.6917 33.2533 83.4484 31.9228 82.1161C32.0592 81.9671 32.292 81.6923 32.5458 81.4385C40.6457 73.3344 48.7428 65.2276 56.8512 57.1322C61.4127 52.5779 64.3115 47.1309 65.3816 40.792C67.626 27.4939 60.9065 14.2421 48.2176 8.32798C44.068 6.39385 39.6673 5.45789 35.1014 5.57053C20.8073 5.92315 9.00577 15.991 6.24561 29.4113C4.09615 39.8623 6.89341 48.9652 14.0907 56.7805C14.5051 57.2306 14.9115 57.808 15.0305 58.3862C15.3236 59.8102 14.779 60.862 13.6639 61.4281C12.4825 62.028 11.1726 61.7308 10.0971 60.61C6.25533 56.607 3.40786 51.9973 1.72322 46.7022C-4.4293 27.3619 6.41774 7.03057 25.9054 1.40076C29.8071 0.273674 33.8022 -0.199736 37.8354 0.0773431C52.9836 1.11803 65.4569 11.1528 69.7979 25.3117C70.9985 29.2272 71.5809 33.2434 71.3443 37.3198C70.8189 46.3772 67.4792 54.2757 61.0797 60.7537C52.8685 69.0654 44.5694 77.2907 36.3068 85.5517C36.1482 85.7103 35.9709 85.8505 35.8015 86Z" fill="white"/>
<path d="M56.7039 35.7261C57.0231 46.5374 48.0414 56.835 35.6486 56.8409C23.7631 56.8463 14.287 47.0757 14.5625 35.2532C14.8197 24.217 23.4829 14.607 35.6832 14.5986C48.3447 14.59 57.0231 25.0754 56.7039 35.7261ZM32.7389 44.8399C33.8174 44.8399 34.5287 44.8539 35.2392 44.8367C36.5133 44.8062 38.0783 45.1911 38.9765 44.589C39.8183 44.0247 40.021 42.4278 40.3827 41.2478C40.7523 40.0418 41.3017 39.2621 42.7282 39.3444C43.4222 39.3845 44.1306 39.1298 44.8356 39.0307C46.5956 38.7833 48.3576 38.5487 50.3103 38.2827C49.0425 41.0483 46.8021 42.4624 44.4183 43.7381C46.8638 43.0964 48.9353 41.8671 50.3874 39.8022C51.0913 38.8014 51.6877 37.8149 53.0831 37.81C53.1727 37.8097 53.2616 37.677 53.4755 37.5067C52.8282 37.4399 52.3584 37.3918 51.9522 37.3499C51.9522 35.8566 52.2041 34.385 51.9031 33.0372C51.1211 29.5354 48.722 27.2746 45.5103 25.9446C40.5351 23.8843 35.3943 23.4625 30.1991 25.0288C26.8038 26.0523 23.7622 27.6953 22.0882 31.0384C21.5646 32.084 21.3721 33.2955 20.9996 34.5253C19.8286 33.6949 18.6468 32.8569 17.4652 32.0189C17.3661 32.1288 17.267 32.2388 17.1677 32.3487C18.2955 33.934 19.4224 35.5201 20.551 37.1049C22.1689 39.3768 23.9115 41.4701 27.3077 41.4473C25.7676 42.6203 24.4871 43.5954 23.2069 44.5705C25.7524 44.8358 28.1584 44.8553 30.563 44.8121C30.8744 44.8064 31.2569 44.5429 31.475 44.2868C32.3542 43.2554 33.1915 42.1878 34.0248 41.1184C34.5593 40.4326 35.222 40.2116 36.1564 40.3842C35.0429 41.8363 34.001 43.1944 32.7389 44.8399Z" fill="white"/>
<path d="M89.3282 32.8698C88.1534 35.5263 86.9786 38.1827 85.8037 40.8392C85.6551 40.856 85.5063 40.8727 85.3577 40.8895C84.2213 38.2096 83.085 35.5299 81.9486 32.8501C81.833 32.8587 81.7174 32.867 81.6019 32.8756C81.3628 34.2049 81.1196 35.5338 80.8864 36.8642C80.7634 37.5659 80.6806 38.2752 80.5408 38.9732C80.173 40.8083 80.1647 40.8067 78.0039 40.4785C78.2837 38.8309 78.551 37.1807 78.8467 35.5354C79.2706 33.1747 79.6895 30.8124 80.1767 28.4643C80.2563 28.0809 80.6096 27.598 80.9552 27.4614C81.548 27.2268 81.9891 27.5643 82.2427 28.201C83.0628 30.2614 83.9235 32.3056 84.7787 34.3517C84.9915 34.8611 85.2433 35.3542 85.5703 36.0545C85.8126 35.6304 85.9714 35.401 86.0824 35.1502C87.1023 32.8462 88.1387 30.5491 89.1113 28.2252C89.3761 27.5924 89.7665 27.232 90.3721 27.4589C90.7186 27.5887 91.1051 28.0538 91.1712 28.422C91.8398 32.1478 92.462 35.8821 93.0386 39.6233C93.0836 39.915 92.6611 40.5651 92.4987 40.5511C91.899 40.4993 90.964 41.1116 90.7805 39.9327C90.4693 37.9334 90.1798 35.9308 89.8744 33.9304C89.8208 33.5789 89.7349 33.2321 89.6639 32.8831C89.5519 32.8784 89.4402 32.8741 89.3282 32.8698Z" fill="white"/>
<path d="M153.927 39.7701C153.927 41.3713 153.873 42.7947 153.947 44.2113C153.996 45.1525 153.617 45.3391 152.762 45.3529C151.849 45.3676 151.604 45.0584 151.616 44.1749C151.66 40.7088 151.618 37.2416 151.653 33.7753C151.658 33.3191 151.872 32.507 152.081 32.4754C152.808 32.3661 153.765 31.9644 154.102 33.1404C156.333 31.7376 158.444 31.824 159.757 33.3362C161.234 35.0372 161.258 37.8326 159.81 39.5761C158.494 41.1614 156.377 41.2901 153.927 39.7701ZM153.702 36.4189C153.687 37.9444 154.704 39.0773 156.11 39.1018C157.49 39.1257 158.641 37.9342 158.638 36.4832C158.635 35.0263 157.633 34.0241 156.171 34.0157C154.628 34.0069 153.717 34.8931 153.702 36.4189Z" fill="white"/>
<path d="M135.157 39.8435C135.157 41.3311 135.135 42.7423 135.166 44.1521C135.182 44.8795 135.122 45.3484 134.168 45.3561C133.23 45.3636 133.025 45.0107 133.033 44.1618C133.068 40.6607 133.029 37.1589 133.072 33.6579C133.078 33.2356 133.348 32.5247 133.622 32.4567C134.239 32.3035 135.092 32.0868 135.3 33.1377C138.01 31.727 139.732 31.8265 141.126 33.4462C142.464 35.0024 142.54 37.6565 141.293 39.3196C139.94 41.1251 138.25 41.2972 135.157 39.8435ZM139.87 36.4566C139.862 34.9302 138.947 34.0164 137.425 34.0158C135.871 34.0151 134.907 34.999 134.933 36.5581C134.958 37.9806 136.044 39.0939 137.414 39.0998C138.825 39.1057 139.877 37.9731 139.87 36.4566Z" fill="white"/>
<path d="M169.322 33.1079C169.697 31.9778 170.624 32.4157 171.372 32.456C171.529 32.4644 171.771 33.0262 171.777 33.3368C171.814 35.2899 171.829 37.245 171.772 39.1973C171.758 39.6671 171.517 40.4718 171.255 40.5263C170.575 40.6684 169.656 40.9798 169.33 39.8729C167.289 41.5146 165.223 41.1997 163.686 39.5499C162.139 37.8901 162.191 35.0687 163.701 33.3757C165.086 31.8247 167.211 31.7089 169.322 33.1079ZM167.294 34.0158C165.819 34.0164 164.807 35.0067 164.794 36.462C164.78 37.9155 165.929 39.1188 167.314 39.1023C168.72 39.0853 169.83 37.903 169.806 36.4462C169.782 34.9789 168.786 34.0151 167.294 34.0158Z" fill="white"/>
<path d="M130.866 36.5006C130.795 39.0384 129.227 40.9472 126.106 40.9628C123.273 40.977 121.403 39.3822 121.328 36.5324C121.259 33.9071 123.217 32.1392 126.075 32.1367C128.942 32.1345 130.866 33.8858 130.866 36.5006ZM123.619 36.5243C123.622 37.9662 124.655 39.0628 126.045 39.1008C127.456 39.1393 128.563 37.9966 128.562 36.5026C128.56 34.9265 127.611 33.9973 126.023 34.0159C124.528 34.0333 123.615 34.9855 123.619 36.5243Z" fill="white"/>
<path d="M99.7562 32.1365C102.716 31.9264 104.624 34.0397 104.601 36.4404C104.574 39.2917 102.668 40.9789 99.7817 40.9639C96.5269 40.9472 95.0556 38.736 95.0684 36.5843C95.0847 33.8741 96.8863 32.144 99.7562 32.1365ZM102.323 36.4682C102.31 34.9349 101.322 33.994 99.7485 34.0159C98.3405 34.0354 97.2365 35.1238 97.2303 36.4981C97.2245 37.8444 98.4821 39.1015 99.8326 39.0992C101.238 39.0968 102.336 37.9364 102.323 36.4682Z" fill="white"/>
<path d="M174.252 36.3822C174.252 35.3273 174.282 34.2712 174.243 33.2178C174.214 32.4481 174.645 32.3699 175.246 32.3794C175.844 32.3886 176.332 32.3556 176.374 33.2196C176.476 35.3472 176.515 35.3454 178.709 35.3359C180.112 35.3297 180.112 35.3297 180.119 33.7745C180.123 33.0719 179.933 32.3156 181.124 32.3592C181.949 32.3893 182.251 32.6092 182.23 33.4612C182.178 35.4944 182.187 37.5303 182.226 39.564C182.242 40.3344 182.006 40.6275 181.202 40.6347C180.362 40.6424 180.1 40.3604 180.101 39.5228C180.107 37.1668 180.071 37.2232 177.675 37.161C176.594 37.1329 176.243 37.529 176.352 38.5285C176.385 38.8264 176.331 39.1335 176.361 39.4317C176.448 40.2713 176.187 40.651 175.244 40.6411C174.301 40.6311 174.216 40.1697 174.242 39.4341C174.279 38.4177 174.252 37.3994 174.252 36.3822Z" fill="white"/>
<path d="M112.989 34.3598C111.489 33.9894 110.141 33.5614 109.081 34.8656C108.325 35.7959 108.276 36.9452 108.948 37.9071C109.989 39.3977 111.409 39.1971 112.859 38.6581C113.283 40.8297 112.759 40.7336 110.852 40.9548C108.865 41.185 106.784 39.4884 106.409 37.6565C105.925 35.3012 106.929 33.1059 109.055 32.423C110.035 32.1079 111.205 32.1765 112.252 32.3267C113.46 32.5001 112.86 33.5338 112.989 34.3598Z" fill="white"/>
<path d="M191.002 34.2974C189.486 33.9744 187.983 33.5428 186.984 35.1022C186.359 36.0768 186.397 37.1177 187.12 38.0453C188.158 39.3758 189.505 39.1905 190.874 38.6653C191.237 40.4542 190.899 40.8743 189.053 41.0021C187.016 41.1432 184.874 39.5375 184.461 37.5604C183.97 35.208 185.131 32.9428 187.299 32.3558C188.207 32.11 189.241 32.1342 190.186 32.2647C191.434 32.437 190.945 33.4614 191.002 34.2974Z" fill="white"/>
<path d="M146.677 32.3878C147.541 32.3878 148.406 32.4106 149.27 32.3801C149.908 32.3577 150.252 32.649 150.084 33.2405C149.993 33.5572 149.56 34.0304 149.321 34.008C148.008 33.8849 147.723 34.4898 147.804 35.6637C147.896 37.0104 147.79 38.3693 147.837 39.7208C147.866 40.5484 147.417 40.6203 146.775 40.6215C146.13 40.6226 145.682 40.5403 145.707 39.721C145.747 38.3693 145.718 37.0154 145.715 35.6623C145.711 34.1326 145.71 34.1168 144.185 34.0595C143.63 34.0387 143.242 33.9704 143.248 33.2677C143.253 32.6604 143.428 32.3568 144.083 32.3803C144.947 32.4111 145.812 32.388 146.677 32.3878Z" fill="white"/>
<path d="M114.988 36.4869C114.988 35.4342 115.012 34.3809 114.979 33.3291C114.958 32.6745 115.157 32.3545 115.87 32.3771C117.034 32.4142 118.201 32.4058 119.365 32.3794C119.982 32.3653 120.243 32.5777 120.244 33.2258C120.246 33.893 119.935 34.0335 119.346 34.0608C117.096 34.1649 117.098 34.1809 117.097 36.412C117.097 37.5398 117.071 38.6683 117.101 39.7954C117.124 40.6766 116.54 40.5963 115.962 40.6157C115.347 40.6365 114.95 40.5063 114.978 39.7569C115.018 38.6685 114.988 37.5771 114.988 36.4869Z" fill="white"/>
<path d="M41.8285 37.4209C42.6991 34.9901 43.474 32.8268 44.2487 30.6634C44.1462 30.607 44.0438 30.5509 43.9413 30.4946C43.0931 31.5643 42.2427 32.6323 41.3972 33.704C40.6046 34.7087 39.7788 35.6904 39.0405 36.734C38.5452 37.4343 37.963 37.5532 37.0849 37.2947C38.7956 35.1348 40.4596 33.0338 42.1237 30.9327C42.059 30.8558 41.9941 30.7787 41.9294 30.7018C41.6365 30.8812 41.3284 31.0395 41.0534 31.2431C38.6028 33.0562 36.1869 34.9184 33.6914 36.6668C33.0694 37.1027 32.2092 37.2943 31.4332 37.387C30.7076 37.4739 29.9496 37.2569 29.2036 37.2149C25.5833 37.0111 24.3022 32.3993 26.3525 29.8959C28.0512 27.8218 30.3147 26.7173 32.8303 26.0421C36.7083 25.0014 40.5691 25.0383 44.3222 26.53C47.7858 27.9068 50.14 30.3356 50.9113 34.0964C50.971 34.388 51.0061 34.689 51.0126 34.9867C51.0619 37.2703 50.9199 37.418 48.6969 37.4202C46.4859 37.4227 44.2752 37.4209 41.8285 37.4209Z" fill="white"/>
</svg>
