<svg width="112" height="54" viewBox="0 0 112 54" fill="none" xmlns="http://www.w3.org/2000/svg">
<path d="M22.0566 52.9543V44.1602H25.8761C26.967 44.1602 27.8096 44.4535 28.4038 45.0402C28.8615 45.4917 29.0898 46.0779 29.089 46.799C29.089 47.5017 28.8672 48.0726 28.4238 48.5118C27.9437 48.9689 27.3327 49.268 26.6743 49.3681L29.4029 52.9543H28.1723L25.5967 49.5381H23.0597V52.9543H22.0566ZM23.0597 48.6461H25.787C26.4628 48.6461 27.0136 48.4828 27.4353 48.156C27.6426 47.9988 27.8086 47.7945 27.9195 47.5604C28.0304 47.3263 28.0829 47.0693 28.0726 46.8109C28.0837 46.5661 28.0347 46.3223 27.9298 46.1004C27.8248 45.8785 27.667 45.6851 27.4699 45.5369C27.0681 45.2295 26.512 45.0762 25.8016 45.0771H23.0597V48.6461Z" fill="white"/>
<path d="M39.1865 53.0926C38.0619 53.0926 37.1657 52.7597 36.4979 52.094C35.83 51.4282 35.4961 50.488 35.4961 49.2733V44.1602H36.4979V49.2113C36.4979 50.1573 36.7369 50.888 37.2149 51.4036C37.693 51.9192 38.3582 52.1765 39.2105 52.1756C40.0468 52.1756 40.7023 51.9288 41.1768 51.4352C41.6513 50.9416 41.8881 50.2209 41.8872 49.2733V44.1602H42.8889V49.1982C42.8889 50.455 42.555 51.4185 41.8872 52.0887C41.2193 52.7588 40.3191 53.0935 39.1865 53.0926Z" fill="white"/>
<path d="M52.7164 53.0793C51.3705 53.0861 50.073 52.5826 49.0898 51.6723L49.7111 50.9437C50.1301 51.335 50.6127 51.6535 51.1386 51.8857C51.6516 52.0939 52.202 52.1966 52.7563 52.1874C53.3488 52.1874 53.8264 52.0469 54.1891 51.7658C54.3628 51.6397 54.5032 51.474 54.5984 51.2827C54.6936 51.0915 54.7408 50.8802 54.7359 50.667C54.7432 50.4715 54.7032 50.277 54.6192 50.0998C54.5352 49.9227 54.4096 49.768 54.253 49.6486C53.9319 49.3983 53.3231 49.1809 52.4264 48.9965C51.3683 48.7699 50.6074 48.4625 50.1435 48.0743C49.6796 47.6861 49.4468 47.1376 49.4451 46.4288C49.4394 46.0984 49.511 45.7713 49.654 45.4728C49.7971 45.1743 50.0079 44.9127 50.2699 44.7081C50.8189 44.2567 51.5164 44.0305 52.3626 44.0296C53.4986 44.0161 54.6034 44.3985 55.4836 45.11L54.9009 45.8767C54.1133 45.24 53.2588 44.9216 52.3373 44.9216C51.7705 44.9216 51.3138 45.0577 50.967 45.33C50.8036 45.4497 50.6712 45.6061 50.5808 45.7864C50.4904 45.9666 50.4445 46.1656 50.4468 46.3668C50.4395 46.566 50.4814 46.7639 50.5688 46.9435C50.6562 47.123 50.7865 47.2787 50.9484 47.3971C51.2818 47.6474 51.9182 47.8731 52.8575 48.0743C53.8641 48.293 54.598 48.5969 55.0592 48.986C55.5204 49.375 55.7506 49.9091 55.7497 50.588C55.7611 50.9344 55.6901 51.2786 55.5424 51.5928C55.3947 51.907 55.1745 52.1825 54.8996 52.3969C54.3328 52.8527 53.6051 53.0802 52.7164 53.0793Z" fill="white"/>
<path d="M65.2432 53.0793C63.8969 53.0858 62.599 52.5825 61.6152 51.6723L62.2365 50.9437C62.6555 51.335 63.1381 51.6534 63.664 51.8857C64.177 52.0939 64.7274 52.1966 65.2817 52.1874C65.8724 52.1874 66.346 52.0464 66.7145 51.7658C66.8877 51.6394 67.0277 51.4735 67.1226 51.2823C67.2175 51.0911 67.2647 50.8801 67.26 50.667C67.267 50.4716 67.227 50.2774 67.1432 50.1003C67.0595 49.9232 66.9345 49.7684 66.7784 49.6486C66.4564 49.3983 65.8476 49.1809 64.9518 48.9965C63.8946 48.7699 63.1332 48.4625 62.6676 48.0743C62.2019 47.686 61.9696 47.1375 61.9704 46.4287C61.9644 46.0983 62.0358 45.7711 62.1789 45.4725C62.322 45.174 62.5329 44.9124 62.7953 44.7081C63.3452 44.2567 64.0427 44.0305 64.8879 44.0296C66.024 44.0163 67.1287 44.3987 68.009 45.11L67.425 45.8767C66.6392 45.2399 65.7851 44.9216 64.8627 44.9216C64.2959 44.9216 63.8392 45.0577 63.4924 45.33C63.3287 45.4494 63.1961 45.6057 63.1056 45.7861C63.0151 45.9664 62.9694 46.1655 62.9722 46.3668C62.9645 46.566 63.0062 46.7641 63.0937 46.9437C63.1811 47.1233 63.3116 47.2789 63.4738 47.3971C63.8072 47.6474 64.4436 47.8731 65.3828 48.0743C66.3886 48.293 67.1221 48.5969 67.5833 48.9859C68.0445 49.375 68.2751 49.9091 68.2751 50.588C68.2867 50.9344 68.2158 51.2787 68.0681 51.5929C67.9204 51.9072 67.7001 52.1826 67.425 52.3969C66.8582 52.8527 66.131 53.0802 65.2432 53.0793Z" fill="white"/>
<path d="M74.8145 52.9543V44.1602H75.8162V52.9543H74.8145Z" fill="white"/>
<path d="M82.0664 52.9537L86.1134 44.0977H87.0513L91.0983 52.9537H90.0207L88.9803 50.6297H84.1458L83.0934 52.9537H82.0664ZM84.5396 49.7377H88.5866L86.5697 45.2583L84.5396 49.7377Z" fill="white"/>
<path d="M24.8333 20.91C24.1748 20.3331 23.4337 19.8558 22.6342 19.4937C22.4689 19.4292 22.3289 19.3137 22.235 19.1643C22.1339 18.9193 21.8891 18.8086 21.7229 18.6242L21.4076 18.2751C21.2306 18.0998 21.3783 17.8574 21.1974 17.6637C21.1548 17.6176 21.0976 17.5847 21.051 17.5412C20.8222 17.3252 20.906 17.0235 20.8767 16.7507C20.8182 16.392 20.7061 16.0439 20.5441 15.7178L20.2581 15.0591C20.1331 14.7889 20.0264 14.5107 19.9388 14.2265C19.7393 13.5203 19.6728 12.6455 19.8763 11.9315C20.0798 11.2174 20.479 10.5428 20.6945 9.8235C20.9393 8.99877 20.8435 8.20566 20.7836 7.36511C20.7663 7.23612 20.7744 7.10502 20.8076 6.9791C20.8161 6.9547 20.8263 6.93092 20.8382 6.90795C20.8454 6.89114 20.8562 6.87601 20.8697 6.86354C20.8832 6.85106 20.8992 6.84151 20.9166 6.83549C20.9805 6.82495 21.0231 6.89873 21.059 6.95275C21.1181 7.0333 21.2058 7.08877 21.3045 7.10807C21.4031 7.12737 21.5055 7.10906 21.5911 7.05683C21.6538 7.00865 21.7054 6.94775 21.7423 6.87821C21.7792 6.80868 21.8007 6.73212 21.8053 6.65368C21.8253 6.49822 21.8053 6.34144 21.816 6.18466C21.8266 6.09693 21.8239 6.00811 21.808 5.92117C21.7798 5.84286 21.7344 5.77176 21.675 5.71301C21.4905 5.49817 21.2733 5.31324 21.0311 5.16494C20.8917 5.06857 20.7294 5.00998 20.5601 4.99499C20.4752 4.98968 20.3906 5.00936 20.317 5.05156C20.2434 5.09376 20.184 5.15659 20.1464 5.23213C20.0639 5.43898 20.2089 5.66163 20.2275 5.88296C20.2461 6.1043 20.1237 6.33617 20.0466 6.55751C19.9136 6.93694 19.9136 7.34799 19.8138 7.73664C19.714 8.12529 19.4985 8.50999 19.4147 8.92236C19.3308 9.33473 19.3694 9.7247 19.3189 10.1226C19.225 10.7966 18.8903 11.4149 18.3756 11.8656C18.3144 11.9104 18.2559 11.9552 18.2719 12.025C18.1535 12.0421 18.059 12.025 18.0431 11.8656C17.9672 11.502 17.6666 11.2582 17.5335 10.9249C17.3606 10.7352 17.1118 10.888 16.9189 10.7932C16.8364 10.5152 16.4825 10.6891 16.404 10.5376C16.1539 10.058 15.9251 10.3821 15.7069 10.5297C15.546 10.6377 15.4409 10.805 15.2865 10.9249C15.1403 11.0114 15.0142 11.1278 14.9167 11.2661C14.7879 11.4748 14.6801 11.6954 14.5947 11.9249C14.5562 11.9989 14.5481 12.0848 14.5721 12.1646C14.5881 12.2028 14.6174 12.2345 14.636 12.2714C14.6573 12.3235 14.6703 12.3786 14.6746 12.4347C14.7544 12.938 15.1588 13.2107 15.6205 13.3346C15.7413 13.3649 15.8603 13.4018 15.977 13.4452C16.2604 13.5612 16.4213 13.7693 16.1672 14.0144C15.84 14.3292 15.6817 14.8154 15.969 15.2106C16.3043 15.6704 16.6342 16.1329 16.9535 16.6216C16.9216 16.6493 16.9362 16.6994 16.9535 16.7363C17.1038 17.0432 17.334 17.3028 17.5189 17.59C17.8116 18.0458 17.918 18.5306 17.5415 18.968C17.4823 19.0232 17.4471 19.099 17.4433 19.1794C17.4396 19.2599 17.4677 19.3386 17.5215 19.3989C17.6732 19.7427 17.3326 20.1393 17.6413 20.466C17.7929 20.7861 18.1269 20.91 18.4395 21.0127C18.5019 21.0299 18.5608 21.0575 18.6138 21.0944C18.6754 21.1527 18.7227 21.2242 18.752 21.3035C18.7813 21.3828 18.7918 21.4677 18.7827 21.5516C18.7734 21.6715 18.7415 21.7874 18.7335 21.906C18.7096 22.2854 18.8479 22.6965 18.8772 23.0733C18.9144 23.5581 18.969 24.0429 19.0102 24.5225C18.6657 24.9467 19.0235 25.0666 19.3162 25.2155L19.3641 25.7319C19.4147 26.0652 19.279 26.5224 19.8138 26.5698C20.3246 26.6133 20.7637 26.4697 20.7703 25.9453C20.6865 25.6476 20.7104 25.2866 20.3486 25.1733L20.3379 24.9296C20.5574 24.7583 20.5135 24.425 20.4603 24.1549C20.3553 23.629 20.2886 23.0962 20.2608 22.5608C20.2448 22.2709 20.2062 21.9824 20.1876 21.6926C20.1597 21.2631 20.1291 21.0654 20.4883 20.7782C20.5237 20.7425 20.5709 20.7205 20.6213 20.7163C20.7809 20.7219 20.9364 20.7673 21.0736 20.8481C21.2338 20.965 21.4086 21.0606 21.5938 21.1326C21.957 21.3065 22.1605 21.5621 22.5543 21.6517C22.6187 21.6568 22.6812 21.6753 22.7378 21.706C22.7944 21.7366 22.8439 21.7787 22.8829 21.8296C22.9109 21.8916 22.9228 21.9595 22.9175 22.0272C22.9175 22.2643 22.9175 22.5186 22.7845 22.7162C22.7111 22.8108 22.6297 22.899 22.541 22.9797C22.0687 23.4751 21.9849 24.2563 21.4767 24.7148C21.3104 24.865 21.0776 25.0126 21.0909 25.2418C21.1042 25.4711 21.3796 25.616 21.6164 25.6845C22.0036 25.7952 22.3973 25.8861 22.7938 25.9585C22.9409 26.0035 23.0998 25.9912 23.2381 25.9243C23.308 25.8719 23.3572 25.7971 23.3774 25.7127C23.3975 25.6283 23.3873 25.5396 23.3486 25.4618C23.3072 25.3855 23.249 25.3193 23.1783 25.2682C23.1076 25.2172 23.0262 25.1825 22.9401 25.1667C22.8443 25.1456 22.7432 25.1417 22.6501 25.1114C22.6023 25.0996 22.5581 25.0765 22.5214 25.0438C22.4848 25.0112 22.4568 24.9702 22.4399 24.9243C22.4146 24.8294 22.4891 24.7122 22.5863 24.7214C22.6364 24.7333 22.6824 24.7583 22.7193 24.7939C22.8603 24.9059 23.0492 24.9994 23.2155 24.9256C23.3253 24.8662 23.4133 24.774 23.467 24.6621C23.9803 23.7815 24.5403 22.9284 25.1446 22.1062C25.5144 21.6412 25.2111 21.2235 24.8333 20.91ZM21.8878 19.0326C21.8712 19.0286 21.8539 19.0286 21.8373 19.0326C21.8447 19.0274 21.8535 19.0247 21.8625 19.0247C21.8716 19.0247 21.8804 19.0274 21.8878 19.0326ZM21.0696 18.3212H21.0803L21.063 18.3317L21.0696 18.3212ZM19.6807 13.8892V13.8721C19.7034 13.8576 19.6967 13.8721 19.6807 13.8866V13.8892ZM19.7885 25.392V25.4025H19.7805L19.7885 25.392Z" fill="white"/>
<path d="M59.4478 24.3457C59.4704 24.5789 59.3148 24.7198 59.4119 24.9833C59.4824 25.1691 59.5768 25.3786 59.493 25.5551C59.4411 25.6658 59.3294 25.7396 59.2762 25.8502C59.2325 25.9692 59.2229 26.0977 59.2482 26.2217C59.2815 26.5379 59.2935 26.8805 59.1498 27.1598C59.0474 27.3614 58.8731 27.5208 58.78 27.7263C58.7442 27.8115 58.7162 27.8997 58.6961 27.9898C58.5508 28.5642 58.4463 29.1479 58.3835 29.7367C58.3409 29.7704 58.3067 29.8134 58.2836 29.8623C58.2606 29.9112 58.2492 29.9647 58.2505 30.0187C58.1528 30.046 58.0684 30.1073 58.0127 30.1912C57.957 30.2752 57.9337 30.3763 57.9471 30.4758C57.6478 30.5444 57.3032 30.2795 57.0385 30.5984C56.795 30.9936 57.0013 31.2571 57.3192 31.4771C57.3458 31.4749 57.3716 31.4673 57.395 31.4547V31.4745C57.3924 31.4844 57.3924 31.4949 57.395 31.5048L57.3724 31.5285C57.3498 31.5522 57.6199 31.9751 57.6678 32.0199C57.7326 32.0823 57.8154 32.1233 57.9047 32.1372C57.9941 32.1511 58.0856 32.1373 58.1667 32.0976C58.3369 32.0028 58.4181 31.8065 58.4859 31.626C58.7121 31.0305 58.7001 30.3863 59.0181 29.8316C59.2017 29.5128 59.4305 29.2203 59.5955 28.8923C59.7285 28.6195 59.8256 28.3257 59.9573 28.0517C60.0761 27.7712 60.2767 27.5323 60.5334 27.3653C60.6761 27.3006 60.8139 27.2257 60.9458 27.1413C61.2518 26.8963 61.3223 26.3509 61.4114 25.9991C61.5375 25.4858 61.6181 24.9625 61.6522 24.4353C61.6642 24.2403 61.6828 24.0203 61.8385 23.9083C61.9607 23.8361 62.1022 23.8026 62.2442 23.8121C63.1854 23.7812 64.1212 23.6585 65.038 23.4458C65.1543 23.4087 65.278 23.4006 65.3982 23.4222C65.5185 23.4438 65.6314 23.4945 65.7271 23.5697C65.8721 23.7014 65.807 23.9333 65.8043 24.1322C65.7883 25.0835 65.8482 26.011 65.3945 26.8489C65.2416 27.1308 65.0486 27.4971 65.2615 27.7342C65.4744 27.9713 65.8269 27.8383 66.109 27.7342C66.7214 27.4999 67.3752 27.3901 68.0313 27.4114C68.1698 27.4285 68.3104 27.4141 68.4424 27.3693C68.508 27.3451 68.5621 27.2975 68.5941 27.2358C68.6261 27.1741 68.6337 27.1029 68.6154 27.0359C68.5739 26.9582 68.5047 26.8985 68.4211 26.8686C68.01 26.675 67.6229 26.7079 67.1826 26.5854C66.5945 26.422 66.8526 24.8832 66.9763 24.4616C67.0921 24.0664 67.1373 23.6896 67.2344 23.2838C67.3675 22.7568 67.2664 21.8096 66.6438 21.5961C66.5168 21.5622 66.3845 21.5528 66.254 21.5685C65.2961 21.6277 64.6575 21.6831 63.6957 21.7424C63.5486 21.732 63.4009 21.7382 63.2553 21.7608C63.0531 21.8148 62.9679 21.774 62.7644 21.7226C62.5609 21.6712 62.2615 21.5342 62.4571 21.4591C62.7631 20.9993 62.8003 21.027 62.8416 20.8254C62.9573 20.2642 63.1515 19.9177 63.4855 19.4513C63.6824 19.5369 63.7515 19.5 63.8846 19.6068C63.9998 19.6944 64.1253 19.7678 64.2584 19.8255C64.3633 19.8823 64.4771 19.9215 64.595 19.9414C64.7211 19.969 64.8376 20.029 64.9329 20.1153C65.2948 20.4262 65.8336 20.3195 66.2925 20.1825C66.7515 20.0455 67.2424 19.8676 67.6934 20.027C67.7696 20.0616 67.8502 20.086 67.9329 20.0995C68.2495 20.1258 68.4038 19.6515 68.199 19.4091C67.9941 19.1667 67.6269 19.1456 67.3183 19.2128C67.0096 19.28 66.7183 19.4328 66.4043 19.4763C65.791 19.5475 65.207 19.1838 64.7906 18.728C64.4962 18.3803 64.2344 18.0068 64.0083 17.6121C63.9033 17.4183 63.7646 17.2444 63.5985 17.0983C63.4229 16.9665 62.8629 16.9297 62.6593 17.0179C63.0584 16.5186 62.8695 16.1115 62.6407 15.4633C62.5782 15.2868 62.5489 15.0009 62.4744 14.8296C62.4265 14.7163 62.4252 14.5859 62.3666 14.4779C62.2336 14.2275 61.885 14.2144 61.6003 14.2223C61.0682 14.2473 60.4669 14.3119 60.1662 14.7493C59.972 15.0286 59.9613 15.3922 59.9839 15.7308C60.0052 16.0259 60.0691 16.3605 60.3245 16.5212C60.4243 16.5845 60.5454 16.6095 60.6465 16.6714C60.6986 16.699 60.7399 16.743 60.764 16.7964C60.7881 16.8499 60.7936 16.9097 60.7795 16.9665C60.4868 16.79 60.101 16.9995 59.9001 17.2748C59.5489 17.757 59.521 18.3907 59.4451 18.981C59.3746 19.5987 59.2114 20.2026 58.9609 20.7727C58.8531 21.0085 58.7227 21.2694 58.8052 21.5144C58.8459 21.5995 58.8797 21.6876 58.9063 21.7779C58.9091 21.8871 58.897 21.9961 58.8704 22.102C58.8039 22.7094 59.4465 23.1402 59.2283 23.7844L59.4478 24.3457ZM65.6141 19.7332L65.5981 19.7438C65.5968 19.7341 65.5968 19.7244 65.5981 19.7148L65.6141 19.7332ZM59.1711 20.8017C59.1684 20.7789 59.1684 20.7559 59.1711 20.7332C59.1711 20.7503 59.1817 20.7661 59.1884 20.7819L59.1711 20.8017ZM58.8145 29.0293V29.0359H58.7999L58.8145 29.0293Z" fill="white"/>
<path d="M75.3851 12.0734C75.3705 11.7664 75.3 11.2473 75.3612 11.2368C75.4036 11.0132 75.4227 10.7858 75.4184 10.5583C75.3093 9.64399 75.1816 8.7323 75.0432 7.82325C74.9341 7.10655 75.0233 6.45177 75.461 5.83915C75.5594 5.7074 75.5328 5.36749 75.4277 5.21994C75.0685 4.71798 74.7998 4.24369 75.143 3.6179C75.4862 2.9921 76.0344 2.79448 76.6956 2.75496C76.9248 2.75607 77.154 2.74463 77.382 2.7207C77.4492 2.73675 77.5104 2.77123 77.5586 2.82017C77.6068 2.8691 77.6402 2.93052 77.6548 2.99737C77.7452 3.32279 77.539 3.6561 77.7306 3.9196C77.9491 4.22218 78.0441 4.59533 77.9967 4.96435C77.9727 5.27527 77.9168 5.63494 77.6601 5.81543C78.4277 6.60591 79.2685 6.60591 79.9124 5.73902C80.2676 5.26341 80.4831 4.68505 80.7944 4.18046C80.9393 3.93008 81.1339 3.71137 81.3665 3.53753C81.4703 3.46639 81.8148 3.53753 81.868 3.64161C81.9532 3.79971 81.9678 4.14884 81.868 4.22525C81.0778 4.82074 80.8224 5.71794 80.4419 6.54794C80.2942 6.86941 80.1133 7.17769 79.9896 7.41088C80.2756 7.63354 80.7159 7.80612 80.8024 8.0907C80.8889 8.37527 80.6694 8.79027 80.5363 9.12622C80.1213 10.1341 79.6516 11.1209 79.2565 12.1366C79.0197 12.7466 79.2086 13.0114 79.8299 13.2486C80.2383 13.404 81.2082 13.7756 81.0858 14.0535C80.9634 14.3315 80.4778 14.2459 80.1758 14.2617C79.9576 14.2736 79.331 14.0615 79.17 14.2419C78.9918 14.4435 79.2645 14.8295 79.335 15.0456C79.7714 16.3815 80.1519 17.7372 80.6015 19.0691C80.9714 20.1679 81.3279 21.2864 81.8481 22.3167C82.1062 22.8266 82.7381 23.1414 83.1665 23.5775C83.3554 23.7685 83.4592 24.0399 83.6028 24.2758C83.3168 24.3588 83.0201 24.5393 82.7487 24.5063C82.2166 24.4444 81.872 24.1546 81.6605 23.5841C81.421 22.9451 80.9421 22.3984 80.6268 21.7805C80.1851 20.9162 79.7807 20.0322 79.3935 19.1456C79.202 18.7042 78.8295 18.3261 78.6738 17.9598C78.3625 17.2247 77.7758 16.7293 77.4086 16.068C77.1642 15.6497 76.8625 15.2671 76.512 14.931C75.9798 14.404 75.6126 13.8072 75.5075 13.0773L75.3851 12.0734ZM79.1448 8.07489L78.0898 7.73498C78.147 8.14603 78.1922 8.46617 78.2481 8.86537L79.1448 8.07489Z" fill="white"/>
<path d="M32.1058 30.8458C28.528 34.3591 24.0539 36.1131 18.6837 36.1078C13.3134 36.1025 8.8567 34.3569 5.31349 30.8709C1.77116 27.3796 0 23.107 0 18.0532C0 13.0337 1.78801 8.7695 5.36404 5.26064C8.94007 1.75179 13.4137 -0.0017553 18.7848 1.31846e-06C24.1568 1.31846e-06 28.614 1.7452 32.1563 5.23561C35.6986 8.72602 37.4694 12.9986 37.4685 18.0532C37.4685 23.0754 35.6809 27.3396 32.1058 30.8458ZM11.1299 25.8395C13.144 27.9685 15.6957 29.0326 18.7848 29.0317C21.8739 29.0308 24.4087 27.9768 26.3892 25.8698C28.3696 23.7618 29.3603 21.1598 29.3612 18.0638C29.3612 15.0073 28.3537 12.4162 26.3386 10.2907C24.3236 8.16522 21.7719 7.09368 18.6837 7.07611C15.5946 7.07611 13.0598 8.13009 11.0793 10.238C9.09883 12.346 8.11081 14.951 8.11524 18.0532C8.11524 21.1124 9.12011 23.7056 11.1299 25.8329V25.8395Z" fill="white"/>
<path d="M59.9586 36.1078C54.787 36.1078 50.4811 34.3705 47.0407 30.8959C43.6004 27.4213 41.8798 23.1404 41.8789 18.0532C41.8789 12.9994 43.6084 8.7269 47.0673 5.23561C50.5263 1.74433 54.9254 -0.00087798 60.2646 3.31355e-07C63.3191 3.31355e-07 65.8876 0.490098 67.9701 1.47029C70.0526 2.45049 72.033 3.85579 73.9115 5.68619L69.2752 10.9719C67.7674 9.6096 66.3484 8.62018 65.018 8.00361C63.6876 7.38703 62.0845 7.07963 60.2087 7.08138C57.2544 7.08138 54.8119 8.13535 52.881 10.2433C50.9502 12.3512 49.9848 14.9528 49.9848 18.048C49.9848 21.1071 50.9502 23.7003 52.881 25.8276C54.8119 27.9549 57.2544 29.019 60.2087 29.0198C62.0881 29.0198 63.7164 28.6874 65.0938 28.0225C66.4712 27.3576 67.9315 26.3269 69.4747 24.9304L74.4104 30.1673C72.4964 32.1962 70.4233 33.6924 68.1909 34.656C65.9586 35.6195 63.2145 36.1034 59.9586 36.1078Z" fill="white"/>
<path d="M81.5312 35.5086V0.595703H97.646C102.111 0.595703 105.535 1.77615 107.919 4.13705C109.935 6.13433 110.943 8.8268 110.942 12.2144C110.942 17.5721 108.424 21.1798 103.388 23.0374L111.999 35.5046H102.934L95.2793 24.3351H89.2926V35.5059L81.5312 35.5086ZM89.2873 17.5555H97.1431C99.0225 17.5555 100.483 17.0983 101.524 16.184C102.565 15.2696 103.086 14.0475 103.086 12.5175C103.086 10.8891 102.548 9.65065 101.473 8.8022C100.399 7.95376 98.9045 7.52997 96.9915 7.53085H89.2873V17.5555Z" fill="white"/>
</svg>
