<svg width="161" height="44" viewBox="0 0 161 44" fill="none" xmlns="http://www.w3.org/2000/svg">
<path d="M5.69087 11.6955C2.56053 11.6955 0 9.22873 0 5.83152C0 2.43431 2.52447 0 5.69087 0C8.85727 0 11.3817 2.46676 11.3817 5.86397C11.3817 9.26118 8.85005 11.6955 5.69087 11.6955ZM5.69087 2.52447C4.78627 2.49322 3.90766 2.8301 3.25585 3.45812C2.60404 4.08615 2.23474 4.95163 2.23235 5.85676C2.23235 7.80781 3.77227 9.1602 5.69087 9.1602C6.59581 9.19045 7.47438 8.85275 8.12608 8.22416C8.77777 7.59557 9.14696 6.72974 9.14938 5.8243C9.14938 3.88407 7.60946 2.52447 5.69087 2.52447Z" fill="white"/>
<path d="M16.834 11.2077V2.91302H18.9978V8.80224H21.2302V3.60545H23.394V8.80224H25.7057V2.83008H27.8695V11.2077H16.834Z" fill="white"/>
<path d="M19.9112 32.0248C20.0446 34.2364 18.9405 36.3395 17.0444 37.4856C15.1483 38.6317 12.773 38.6317 10.8769 37.4856C8.98077 36.3395 7.87669 34.2364 8.01011 32.0248V15.3129H2.42383V32.0248C2.69134 38.1983 7.77413 43.0657 13.9534 43.0657C20.1327 43.0657 25.2155 38.1983 25.483 32.0248V15.3057H19.9112V32.0248Z" fill="white"/>
<path d="M158.494 28.5555C160.443 26.0978 160.813 22.7414 159.447 19.9179C158.081 17.0944 155.219 15.3022 152.082 15.3057L137.869 15.3057V43.0459L152.522 43.0459C155.956 43.0489 159.052 40.9783 160.361 37.8033C161.67 34.6283 160.933 30.9772 158.494 28.5591V28.5555ZM152.522 37.4741H143.437V31.6642H152.522C154.127 31.6642 155.429 32.9656 155.429 34.5709C155.429 36.1763 154.127 37.4777 152.522 37.4777V37.4741ZM152.082 20.8847C153.459 20.9401 154.555 22.0578 154.584 23.4358C154.613 24.8139 153.564 25.9762 152.19 26.0887H143.437V20.8739L152.082 20.8847Z" fill="white"/>
<path d="M113.28 15.3113H113.266V43.0444H118.834V43.0408H133.559V37.4689H118.834V31.6482H132.109V26.08H118.834V20.8687H133.559V15.2969H113.28V15.3113Z" fill="white"/>
<path d="M48.2927 32.8038V15.3057H53.8646V43.0387L49.793 43.0135L36.828 25.4793V43.0459H31.2598V15.3057H35.3314L48.2927 32.8038Z" fill="white"/>
<path d="M65.3397 15.3057H59.7715V43.0459H65.3397V15.3057Z" fill="white"/>
<path d="M83.1491 43.0413L89.6154 23.4767L96.078 43.0413H100.734L109.634 15.3154H103.936L98.3428 32.7378L92.4464 15.3154H86.7807L80.7761 33.0768L75.0708 15.3154H69.3691L78.2769 43.0413H83.1491Z" fill="white"/>
</svg>
